<svg width="665" height="633" viewBox="0 0 665 633" fill="none" xmlns="http://www.w3.org/2000/svg">
<path d="M501.797 263.982C495.746 268.042 489.542 268.833 483.491 264.161C477.491 259.54 476.93 253.208 479.253 245.447C471.389 247.157 464.317 247.106 459.671 240.111C455.688 234.111 456.658 228.239 460.59 222.571C461.075 222.086 461.56 221.626 462.045 221.141C464.854 219.124 468.122 217.158 471.389 217.822C477.364 219.022 476.266 216.265 476.598 212.052C477.032 206.231 476.419 203.857 469.909 204.801C467.534 205.133 464.802 203.04 462.249 202.044C461.56 201.355 460.871 200.665 460.181 200.002C456.735 194.206 455.662 188.309 459.849 182.462C464.496 175.977 471.058 175.415 479.125 177.56C477.083 169.62 477.389 162.65 484.359 158.029C490.333 154.097 496.206 155.067 501.822 158.973C502.307 159.459 502.767 159.944 503.252 160.429C504.401 163.263 506.877 166.301 506.443 168.854C505.295 175.747 508.563 174.496 513.337 174.879C519.081 175.339 519.566 173.781 519.413 168.879C519.311 166.097 521.507 163.263 522.656 160.429C523.166 159.918 523.677 159.382 524.187 158.871C530.213 154.633 536.417 153.918 542.468 158.514C548.493 163.109 549.208 169.39 546.884 177.1C554.544 175.773 561.692 175.441 566.39 182.513C570.373 188.513 569.454 194.385 565.675 200.104C565.088 200.691 564.501 201.253 563.939 201.84C561.08 202.963 558.093 205.261 555.386 204.955C549.54 204.291 549.616 206.359 549.693 211.312C549.769 216.112 549.489 218.41 555.412 217.746C558.118 217.439 561.105 219.763 563.939 220.886C564.526 221.473 565.114 222.06 565.726 222.648C569.76 228.673 570.552 234.877 565.931 240.877C561.335 246.825 555.156 247.77 547.37 245.217C548.952 253.234 548.697 260.536 541.293 265.131C535.6 268.654 529.983 267.684 524.57 264.238C523.83 263.497 523.115 262.757 522.375 262.042C519.515 257.804 518.775 253.08 519.566 248.153C511.422 247.234 504.656 247.464 505.499 258.263C505.601 259.565 504.171 260.97 503.431 262.323C502.869 262.91 502.333 263.446 501.797 263.982ZM540.808 239.141C536.136 236.307 545.94 227.396 535.523 227.345C530.213 227.32 528.962 229.132 529.013 234.06C529.089 244.4 537.872 234.622 540.808 239.141ZM485.534 239.268C488.419 235.362 498.81 244.63 496.997 231.915C495.542 221.805 489.134 229.771 485.585 227.167C487.04 231.379 485.508 234.902 485.534 239.268ZM541.166 183.841C528.834 185.117 529.14 185.168 528.783 188.028C527.583 197.959 535.089 194.589 540.91 196.146C539.174 191.525 540.527 187.747 541.166 183.841ZM485.432 183.304C486.121 187.798 486.555 191.653 485.866 195.993C489.261 192.955 496.078 200.461 497.227 190.453C498.631 178.071 488.189 187.9 485.432 183.304ZM508.307 210.648C508.511 213.278 506.52 217.056 511.907 215.984C514.639 215.448 518.162 217.388 517.703 211.72C517.396 207.865 517.192 206.359 512.775 206.64C509.456 206.844 507.082 206.512 508.307 210.648Z" fill="#3C507B"/>
<path d="M503.303 160.429C502.818 159.944 502.359 159.459 501.874 158.974C501.797 158.361 501.874 157.671 501.644 157.135C498.504 150.216 498.401 143.681 504.835 138.625C510.069 134.515 515.967 134.489 521.226 138.574C527.685 143.578 527.609 150.14 524.545 157.059C524.315 157.595 524.366 158.284 524.29 158.897C523.779 159.408 523.269 159.944 522.758 160.454C516.248 163.084 509.763 163.033 503.303 160.429Z" fill="#3C507B"/>
<path d="M565.726 222.673C565.139 222.086 564.552 221.499 563.939 220.911C561.207 214.554 561.259 208.223 563.939 201.865C564.526 201.278 565.114 200.716 565.675 200.129C567.743 199.491 569.76 198.7 571.879 198.291C577.879 197.142 583.036 198.597 586.483 203.933C589.623 208.81 589.623 213.942 586.509 218.818C583.087 224.154 577.905 225.635 571.905 224.486C569.811 224.128 567.794 223.311 565.726 222.673Z" fill="#3C507B"/>
<path d="M522.349 262.068C523.09 262.808 523.804 263.548 524.545 264.263C524.953 265.744 525.362 267.25 525.745 268.731C527.43 275.063 526.409 280.705 520.792 284.611C515.635 288.186 510.069 288.109 504.988 284.407C499.473 280.373 498.58 274.705 500.444 268.425C500.878 266.944 501.363 265.463 501.797 263.982C502.333 263.446 502.869 262.885 503.405 262.348C509.686 259.693 516.018 259.77 522.349 262.068Z" fill="#3C507B"/>
<path d="M462.071 221.141C461.586 221.627 461.101 222.086 460.616 222.571C453.033 224.997 445.425 227.167 439.782 218.997C436.489 214.248 436.412 209.065 439.553 204.163C444.94 195.815 452.573 197.653 460.233 199.951C460.922 200.64 461.611 201.329 462.301 201.993C464.777 208.427 464.547 214.81 462.071 221.141Z" fill="#3C507B"/>
<path d="M588.219 252.621C588.372 259.642 582.041 265.974 575.02 265.846C568.356 265.719 562.407 259.795 562.28 253.106C562.127 246.06 568.433 239.754 575.479 239.881C582.117 240.034 588.066 245.958 588.219 252.621Z" fill="#3C507B"/>
<path d="M450.939 265.744C443.995 265.821 437.74 259.463 437.969 252.544C438.174 245.932 444.097 240.111 450.709 240.034C457.654 239.958 463.909 246.315 463.679 253.234C463.5 259.846 457.552 265.667 450.939 265.744Z" fill="#3C507B"/>
<path d="M484.462 273.148C484.742 280.092 478.538 286.501 471.543 286.501C464.93 286.501 458.931 280.68 458.65 274.067C458.369 267.123 464.573 260.714 471.568 260.714C478.206 260.714 484.206 266.51 484.462 273.148Z" fill="#3C507B"/>
<path d="M574.509 182.87C567.463 182.436 561.642 175.671 562.357 168.752C563.046 162.063 569.377 156.599 575.939 157.007C582.985 157.442 588.807 164.233 588.092 171.126C587.428 177.815 581.096 183.279 574.509 182.87Z" fill="#3C507B"/>
<path d="M450.378 157.084C456.914 156.829 463.118 162.395 463.654 169.033C464.215 175.9 458.267 182.538 451.271 182.819C444.352 183.1 437.944 176.922 437.97 169.952C437.995 163.339 443.765 157.339 450.378 157.084Z" fill="#3C507B"/>
<path d="M567.437 149.272C567.412 156.293 560.952 162.471 553.982 162.139C547.319 161.833 541.549 155.808 541.574 149.144C541.6 142.123 548.059 135.945 555.029 136.277C561.693 136.583 567.463 142.634 567.437 149.272Z" fill="#3C507B"/>
<path d="M471.619 136.353C478.589 136.379 484.742 142.812 484.411 149.731C484.104 156.369 478.079 162.114 471.492 162.063C464.522 162.037 458.369 155.603 458.675 148.684C459.007 142.072 465.033 136.302 471.619 136.353Z" fill="#3C507B"/>
<path d="M567.437 273.454C567.539 280.475 561.182 286.73 554.187 286.552C547.523 286.373 541.651 280.424 541.574 273.761C541.472 266.74 547.804 260.484 554.825 260.689C561.488 260.867 567.335 266.791 567.437 273.454Z" fill="#3C507B"/>
<path d="M480.326 293.598C481.373 286.296 485.509 282.39 492.861 282.467C499.882 282.543 505.014 288.518 504.121 295.564C503.176 302.943 498.58 306.645 491.304 306.134C483.875 305.598 480.53 300.798 480.326 293.598Z" fill="#3C507B"/>
<path d="M595.955 244.196C588.653 243.558 584.389 239.754 584.032 232.35C583.7 225.303 589.419 219.686 596.466 220.197C603.818 220.733 608.005 225.048 607.852 232.401C607.725 239.805 603.231 243.583 595.955 244.196Z" fill="#3C507B"/>
<path d="M442.003 232.018C441.442 239.319 437.74 243.813 430.234 243.864C422.804 243.915 418.464 239.728 418.362 232.273C418.285 224.843 422.498 220.529 429.927 220.401C437.433 220.299 441.289 224.69 442.003 232.018Z" fill="#3C507B"/>
<path d="M545.838 294.211C545.302 301.436 541.6 306.006 534.196 306.236C526.868 306.44 522.477 302.355 521.839 294.977C521.226 287.93 526.792 282.135 533.838 282.39C541.242 282.671 545.097 286.883 545.838 294.211Z" fill="#3C507B"/>
<path d="M595.776 202.733C588.449 201.967 584.262 198.061 584.032 190.657C583.828 183.611 589.649 178.071 596.695 178.734C604.048 179.424 608.133 183.815 607.878 191.142C607.597 198.572 603.002 202.223 595.776 202.733Z" fill="#3C507B"/>
<path d="M430.591 178.786C437.893 179.679 442.106 183.713 441.825 191.142C441.544 198.598 437.025 202.657 429.647 202.402C422.192 202.146 418.158 197.627 418.387 190.223C418.617 182.717 423.264 179.168 430.591 178.786Z" fill="#3C507B"/>
<path d="M504.299 128.209C503.507 135.996 499.627 140.387 492.146 140.26C484.691 140.132 480.453 135.766 480.555 128.311C480.657 120.856 485.049 116.643 492.478 116.694C500.035 116.745 503.61 121.392 504.299 128.209Z" fill="#3C507B"/>
<path d="M545.761 128.617C545.072 135.894 541.242 140.106 533.838 140.361C526.766 140.617 521.303 134.923 521.89 127.851C522.477 120.498 526.817 116.439 534.145 116.643C541.549 116.847 545.225 121.366 545.761 128.617Z" fill="#3C507B"/>
<path d="M451.144 305.266C444.633 304.526 440.293 301.104 440.14 294.569C440.012 288.058 444.097 283.82 450.582 283.667C457.092 283.514 461.331 287.624 461.484 294.109C461.688 300.645 457.424 304.194 451.144 305.266Z" fill="#3C507B"/>
<path d="M513.21 326.048C506.801 325.282 502.436 321.861 502.282 315.299C502.155 308.764 506.291 304.5 512.776 304.321C519.311 304.168 523.575 308.304 523.754 314.814C523.958 321.427 519.694 325.001 513.21 326.048Z" fill="#3C507B"/>
<path d="M617.478 200.487C623.274 201.431 627.231 204.904 627.588 211.414C627.895 217.312 621.793 223.056 616.023 222.265C609.665 221.397 605.938 217.439 605.861 210.929C605.759 205.363 611.427 200.334 617.478 200.487Z" fill="#3C507B"/>
<path d="M420.251 211.312C419.205 218.027 415.63 222.214 409.12 222.035C402.66 221.856 398.575 217.644 398.729 211.159C398.882 204.699 403.12 200.64 409.605 200.768C416.141 200.895 419.409 205.338 420.251 211.312Z" fill="#3C507B"/>
<path d="M512.877 96.8311C519.26 97.5715 523.6 100.993 523.703 107.529C523.83 114.039 519.72 118.277 513.235 118.405C506.724 118.532 502.512 114.422 502.359 107.937C502.206 101.401 506.444 97.8523 512.877 96.8311Z" fill="#3C507B"/>
<path d="M461.688 128.311C460.973 134.668 457.577 138.957 451.067 139.11C444.582 139.238 440.37 135.179 440.216 128.719C440.063 122.234 444.148 118.022 450.607 117.869C457.118 117.69 460.667 121.877 461.688 128.311Z" fill="#3C507B"/>
<path d="M586.202 294.543C585.13 301.002 581.555 305.266 574.994 305.087C568.484 304.908 564.348 300.645 564.501 294.109C564.68 287.598 568.943 283.462 575.479 283.616C582.041 283.743 585.462 288.135 586.202 294.543Z" fill="#3C507B"/>
<path d="M575.071 117.511C581.479 118.277 585.845 121.698 585.998 128.26C586.126 134.796 581.99 139.059 575.479 139.213C568.943 139.366 564.68 135.204 564.526 128.694C564.322 122.132 568.586 118.558 575.071 117.511Z" fill="#3C507B"/>
<path d="M430.004 262.731C436.718 263.752 440.906 267.327 440.727 273.837C440.574 280.297 436.361 284.381 429.876 284.254C423.417 284.101 419.357 279.888 419.46 273.403C419.587 266.842 424.004 263.574 430.004 262.731Z" fill="#3C507B"/>
<path d="M596.134 160.173C589.726 159.407 585.36 155.961 585.232 149.399C585.105 142.863 589.241 138.6 595.777 138.447C602.312 138.293 606.551 142.455 606.729 148.965C606.882 155.578 602.593 159.152 596.134 160.173Z" fill="#3C507B"/>
<path d="M440.957 148.889C440.216 155.399 436.821 159.714 430.31 159.842C423.825 159.969 419.613 155.884 419.46 149.425C419.307 142.94 423.391 138.753 429.851 138.574C436.412 138.396 439.91 142.659 440.957 148.889Z" fill="#3C507B"/>
<path d="M606.984 273.837C605.938 280.194 602.44 284.152 595.93 284.458C590.032 284.764 584.313 278.637 585.104 272.842C585.998 266.484 589.981 262.45 596.466 262.782C602.925 263.14 606.295 267.48 606.984 273.837Z" fill="#3C507B"/>
<path d="M617.018 159.969C623.375 160.633 626.848 164.131 626.541 170.488C626.209 176.922 622.201 180.139 615.92 179.756C610.023 179.398 606.78 175.747 606.857 169.824C606.934 163.416 610.738 160.301 617.018 159.969Z" fill="#3C507B"/>
<path d="M616.967 262.935C610.329 262.323 606.703 259.029 606.806 252.723C606.908 246.417 610.559 242.894 616.839 242.97C623.145 243.047 626.618 246.723 626.618 253.004C626.592 259.438 622.686 262.399 616.967 262.935Z" fill="#3C507B"/>
<path d="M408.966 262.757C402.711 262.042 399.29 258.57 399.648 252.264C400.005 245.881 403.988 242.741 410.217 243.149C416.089 243.532 419.23 247.183 419.102 253.03C419 259.438 415.196 262.45 408.966 262.757Z" fill="#3C507B"/>
<path d="M554.493 97.8268C560.774 98.3119 564.424 101.58 564.297 107.963C564.144 114.371 560.365 117.715 554.059 117.537C548.161 117.358 544.817 113.886 544.715 107.988C544.613 101.58 548.212 98.3119 554.493 97.8268Z" fill="#3C507B"/>
<path d="M410.013 179.832C403.375 179.449 399.622 176.334 399.622 169.952C399.648 163.594 403.247 160.122 409.579 160.199C415.451 160.25 418.847 163.594 419.102 169.467C419.383 175.875 415.783 179.092 410.013 179.832Z" fill="#3C507B"/>
<path d="M564.526 315.07C563.786 321.81 560.237 325.257 553.906 324.899C547.472 324.542 544.28 320.482 544.689 314.202C545.072 308.278 548.774 305.113 554.672 305.189C561.182 305.317 564.067 309.274 564.526 315.07Z" fill="#3C507B"/>
<path d="M471.9 325.027C465.185 324.465 461.586 321.12 461.79 314.738C461.994 308.329 465.824 305.036 472.13 305.266C478.028 305.496 481.296 309.019 481.372 314.916C481.474 321.427 477.645 324.439 471.9 325.027Z" fill="#3C507B"/>
<path d="M481.449 108.141C480.734 114.396 477.262 117.818 470.956 117.46C464.573 117.103 461.433 113.12 461.841 106.89C462.224 101.018 465.875 97.8779 471.722 98.0056C478.13 98.1077 481.142 101.912 481.449 108.141Z" fill="#3C507B"/>
<path d="M637.366 241.157C631.698 240.06 628.201 236.945 628.686 231.481C629.145 226.171 632.822 222.852 638.336 223.414C643.264 223.899 646.404 227.32 646.225 232.349C646.021 237.839 642.294 240.494 637.366 241.157Z" fill="#3C507B"/>
<path d="M388.669 240.826C383.384 240.29 379.989 237.354 380.116 231.864C380.219 226.86 383.461 223.643 388.491 223.618C393.954 223.592 397.299 226.962 397.197 232.452C397.069 237.43 393.801 240.213 388.669 240.826Z" fill="#3C507B"/>
<path d="M533.506 78.2448C538.332 78.5767 541.855 81.0532 542.34 86.1083C542.851 91.6485 539.659 95.2994 534.221 95.6058C528.732 95.9122 525.234 92.491 525.158 87.0019C525.081 81.9468 528.324 79.0617 533.506 78.2448Z" fill="#3C507B"/>
<path d="M646.404 190.376C645.894 195.661 643.085 199.338 637.622 199.44C632.184 199.542 628.737 196.044 628.66 190.606C628.609 185.602 631.877 182.232 636.805 181.9C642.268 181.543 645.358 184.964 646.404 190.376Z" fill="#3C507B"/>
<path d="M388.389 182.002C393.163 182.309 396.635 184.734 397.12 189.764C397.631 195.253 394.491 198.878 389.078 199.185C383.64 199.465 380.168 196.146 380.091 190.657C380.04 185.628 383.206 182.768 388.389 182.002Z" fill="#3C507B"/>
<path d="M501.184 335.622C500.648 340.856 497.814 344.482 492.402 344.507C487.014 344.533 483.619 341.086 483.619 335.673C483.619 330.695 486.887 327.401 491.789 327.12C497.201 326.814 500.265 330.184 501.184 335.622Z" fill="#3C507B"/>
<path d="M501.056 86.8485C500.673 91.7504 498.069 95.1971 493.04 95.5801C487.525 95.9886 483.874 92.7461 483.695 87.2825C483.491 81.7934 486.963 78.3467 492.478 78.3722C497.508 78.4233 500.342 81.7167 501.056 86.8485Z" fill="#3C507B"/>
<path d="M533.787 344.686C528.477 343.996 524.928 341.06 525.056 335.622C525.183 330.235 528.758 326.916 534.17 327.095C539.098 327.273 542.366 330.567 542.468 335.52C542.595 340.984 539.149 343.92 533.787 344.686Z" fill="#3C507B"/>
<path d="M616.61 302.279C611.478 301.87 608.619 299.113 608.848 293.853C609.053 289.079 611.938 286.424 616.686 286.475C621.971 286.526 624.729 289.59 624.524 294.798C624.371 299.623 621.41 301.972 616.61 302.279Z" fill="#3C507B"/>
<path d="M595.215 99.8182C600.781 100.099 603.793 102.601 603.742 107.886C603.691 112.635 601.01 115.418 596.262 115.52C591.053 115.647 588.168 112.813 588.143 107.605C588.168 102.78 591.079 100.457 595.215 99.8182Z" fill="#3C507B"/>
<path d="M596.083 307.13C600.883 307.538 603.742 309.989 603.819 314.814C603.896 320.048 601.036 322.984 595.777 322.933C591.002 322.882 588.245 320.15 588.117 315.35C588.015 310.066 590.977 307.436 596.083 307.13Z" fill="#3C507B"/>
<path d="M615.997 120.498C621.563 120.779 624.601 123.307 624.55 128.617C624.499 133.391 621.818 136.2 617.018 136.302C611.784 136.43 608.848 133.57 608.848 128.311C608.848 123.485 611.759 121.111 615.997 120.498Z" fill="#3C507B"/>
<path d="M437.893 107.912C437.434 112.609 434.957 115.443 430.157 115.418C424.872 115.392 422.115 112.277 422.447 107.12C422.728 102.371 425.766 99.8695 430.515 100.074C435.315 100.278 437.612 103.214 437.893 107.912Z" fill="#3C507B"/>
<path d="M409.656 286.501C414.379 287.011 417.162 289.539 417.085 294.39C416.983 299.726 413.817 302.432 408.609 302.049C403.809 301.717 401.358 298.602 401.614 293.828C401.92 288.977 404.907 286.705 409.656 286.501Z" fill="#3C507B"/>
<path d="M582.628 86.7464C582.245 91.0356 579.998 93.9972 575.709 94.227C570.935 94.4823 567.948 91.5718 567.999 86.7975C568.05 82.5083 570.884 79.802 575.199 79.7509C579.564 79.7254 581.888 82.5593 582.628 86.7464Z" fill="#3C507B"/>
<path d="M458.164 87.0273C457.552 91.2144 455.28 94.1504 451.016 94.176C446.318 94.2015 443.382 91.2144 443.663 86.5167C443.918 82.3552 446.778 79.6488 451.092 79.8276C455.382 80.0063 457.603 82.8658 458.164 87.0273Z" fill="#3C507B"/>
<path d="M430.081 307.232C434.829 307.564 437.766 309.964 437.842 314.814C437.919 320.099 434.932 322.984 429.672 322.78C424.847 322.601 422.268 319.64 422.37 314.865C422.472 310.015 425.332 307.615 430.081 307.232Z" fill="#3C507B"/>
<path d="M637.392 281.114C632.822 280.475 629.86 277.973 630.115 273.173C630.345 268.91 633.128 266.204 637.417 266.255C642.166 266.331 645 269.267 644.796 274.042C644.592 278.356 641.707 280.603 637.392 281.114Z" fill="#3C507B"/>
<path d="M388.082 266.229C392.652 266.74 395.614 268.961 395.793 273.199C395.997 277.897 393.061 280.884 388.363 280.782C384.15 280.705 381.47 277.846 381.444 273.582C381.419 269.216 384.431 267.123 388.082 266.229Z" fill="#3C507B"/>
<path d="M409.656 136.328C404.473 135.766 401.639 133.315 401.69 128.515C401.741 123.23 404.856 120.498 410.039 120.83C414.788 121.137 417.264 124.175 417.06 128.924C416.856 133.774 413.741 135.868 409.656 136.328Z" fill="#3C507B"/>
<path d="M636.983 156.65C632.566 155.706 629.656 153.127 630.192 148.378C630.652 144.242 633.537 141.587 637.8 141.893C642.447 142.251 645.179 145.289 644.694 149.987C644.26 154.199 641.324 156.395 636.983 156.65Z" fill="#3C507B"/>
<path d="M458.241 336.107C457.475 340.294 455.126 343.103 450.786 343.052C446.471 343.001 443.663 340.269 443.638 335.98C443.612 331.205 446.625 328.32 451.373 328.601C455.612 328.831 457.858 331.818 458.241 336.107Z" fill="#3C507B"/>
<path d="M574.739 328.269C579.717 328.984 582.705 331.41 582.526 336.158C582.347 340.371 579.59 343.103 575.326 343.077C570.628 343.052 567.82 340.141 567.922 335.418C568.05 331.154 571.113 329.112 574.739 328.269Z" fill="#3C507B"/>
<path d="M395.92 149.4C395.129 153.638 392.754 156.497 388.388 156.293C384.099 156.114 381.367 153.255 381.521 148.94C381.699 144.651 384.533 141.919 388.873 142.072C393.188 142.251 395.435 145.187 395.92 149.4Z" fill="#3C507B"/>
<path d="M664.71 211.235C664.276 215.448 662.106 217.873 658.123 217.822C654.14 217.771 651.715 215.32 651.766 211.337C651.817 207.355 654.268 204.955 658.251 204.98C662.259 205.006 664.302 207.559 664.71 211.235Z" fill="#3C507B"/>
<path d="M560.186 355.817C560.033 359.621 558.399 361.817 555.182 362.123C551.506 362.481 549.08 360.54 548.953 356.762C548.825 353.009 551.046 350.915 554.774 350.966C558.118 351.017 559.625 353.264 560.186 355.817Z" fill="#3C507B"/>
<path d="M506.673 356.66C507.261 352.192 509.61 349.996 513.592 350.328C517.652 350.66 519.643 353.417 519.235 357.349C518.877 360.847 516.528 362.889 512.903 362.787C508.818 362.685 507.005 360.106 506.673 356.66Z" fill="#3C507B"/>
<path d="M477.211 356.506C476.802 360.03 474.938 362.225 471.236 362.072C468.045 361.919 466.054 359.876 466.054 356.685C466.054 353.034 468.249 350.915 471.9 351.043C475.117 351.145 476.776 353.289 477.211 356.506Z" fill="#3C507B"/>
<path d="M477.134 66.3217C476.7 69.5131 474.99 71.6832 471.747 71.7088C468.045 71.7343 465.849 69.4365 466.156 65.76C466.411 62.6197 468.581 60.6283 471.875 60.8326C475.092 61.0113 476.751 63.1304 477.134 66.3217Z" fill="#3C507B"/>
<path d="M519.26 66.2961C518.75 70.7896 516.248 72.781 512.239 72.398C508.614 72.0406 506.674 69.5896 506.903 65.9642C507.159 61.7516 509.839 59.8113 513.848 60.1942C517.499 60.5006 519.133 63.0282 519.26 66.2961Z" fill="#3C507B"/>
<path d="M560.211 66.0663C559.548 70.0491 557.48 72.1682 553.854 71.7852C550.765 71.4533 548.774 69.3088 549.003 66.0919C549.233 62.4409 551.556 60.4495 555.182 60.7814C558.348 61.0623 559.803 63.4111 560.211 66.0663Z" fill="#3C507B"/>
<path d="M373.453 169.926C373.07 173.118 371.359 175.313 368.143 175.364C364.441 175.441 362.245 173.169 362.475 169.467C362.679 166.301 364.849 164.335 368.117 164.463C371.385 164.641 373.044 166.76 373.453 169.926Z" fill="#3C507B"/>
<path d="M663.919 169.339C663.663 173.424 661.825 175.569 658.098 175.569C654.855 175.569 652.813 173.73 652.557 170.539C652.251 166.939 654.064 164.565 657.791 164.284C661.544 164.029 663.331 166.275 663.919 169.339Z" fill="#3C507B"/>
<path d="M374.015 211.439C373.759 215.346 371.64 217.618 367.555 217.465C363.93 217.337 361.862 215.167 361.836 211.542C361.811 207.431 364.134 205.235 368.219 205.363C371.87 205.465 373.734 207.686 374.015 211.439Z" fill="#3C507B"/>
<path d="M373.453 253.03C372.968 256.195 371.232 258.366 367.989 258.315C364.287 258.263 362.117 255.94 362.475 252.264C362.781 249.149 365.002 247.158 368.27 247.413C371.487 247.668 373.172 249.813 373.453 253.03Z" fill="#3C507B"/>
<path d="M663.893 252.749C663.663 256.349 661.825 258.519 658.098 258.519C654.855 258.519 652.813 256.68 652.557 253.489C652.251 249.889 654.064 247.489 657.791 247.234C661.468 247.004 663.459 249.072 663.893 252.749Z" fill="#3C507B"/>
<mask id="mask0_148_237" style="mask-type:alpha" maskUnits="userSpaceOnUse" x="84" y="93" width="456" height="455">
<circle r="227.014" transform="matrix(0.520081 -0.854117 -0.854117 -0.520081 311.962 320.473)" fill="#ECF3F3"/>
</mask>
<g mask="url(#mask0_148_237)">
<rect width="468.858" height="733.049" transform="matrix(-0.239383 -0.970925 -0.970925 0.239383 657.275 227.75)" fill="white"/>
</g>
<mask id="mask1_148_237" style="mask-type:alpha" maskUnits="userSpaceOnUse" x="117" y="84" width="455" height="455">
<circle cx="344.795" cy="311.092" r="227.014" transform="rotate(30.6953 344.795 311.092)" fill="#ECF3F3"/>
</mask>
<g mask="url(#mask1_148_237)">
<rect x="693.265" y="231.048" width="468.859" height="733.049" transform="rotate(75.8831 693.265 231.048)" fill="#1F2627"/>
</g>
<path d="M273.203 368.134L271.833 367.086C290.06 343.154 299.697 314.564 299.697 284.395C299.697 237.658 276.184 194.661 236.797 169.375L237.731 167.924C277.619 193.517 301.422 237.062 301.422 284.395C301.422 314.935 291.656 343.895 273.203 368.134Z" fill="#EBB964"/>
<path d="M163.13 422.686C86.8693 422.686 24.8226 360.64 24.8226 284.379C24.8226 208.118 86.8693 146.071 163.13 146.071V147.795C87.8201 147.795 26.5631 209.069 26.5631 284.363C26.5631 359.673 87.8362 420.93 163.13 420.93C185.886 420.93 208.416 415.225 228.271 404.427L229.093 405.942C208.98 416.917 186.16 422.686 163.13 422.686Z" fill="#EBB964"/>
<path d="M97.6832 390.841C60.4229 367.892 38.1828 328.085 38.1828 284.379H41.6478C41.6478 326.877 63.2755 365.571 99.5043 387.892L97.6832 390.841Z" fill="#EBB964"/>
<path d="M163.13 409.342C149.432 409.342 135.975 407.134 123.114 402.799L124.226 399.528C136.732 403.75 149.818 405.894 163.146 405.894C225.725 405.894 277.699 359.012 284 296.836L287.449 297.191C280.938 361.107 227.498 409.342 163.13 409.342Z" fill="#EBB964"/>
<path d="M283.066 264.975C278.537 236.788 264.065 210.954 242.292 192.244C220.294 173.323 192.171 162.912 163.13 162.912C139.681 162.912 116.926 169.601 97.3124 182.268C74.4599 197.03 57.0223 219.27 48.2069 244.895L44.9353 243.767C53.9925 217.417 71.9297 194.548 95.4268 179.367C115.604 166.345 139.005 159.464 163.114 159.464C192.993 159.464 221.905 170.181 244.532 189.633C266.917 208.875 281.809 235.451 286.466 264.443L283.066 264.975Z" fill="#EBB964"/>
<path d="M163.13 374.628C113.364 374.628 72.8806 334.145 72.8806 284.379C72.8806 264.234 79.3754 245.185 91.6397 229.294L94.3794 231.405C82.5825 246.699 76.3456 265.007 76.3456 284.379C76.3456 332.227 115.282 371.164 163.13 371.164C171.624 371.164 180.02 369.939 188.062 367.521L189.061 370.841C180.681 373.371 171.946 374.628 163.13 374.628Z" fill="#EBB964"/>
<path d="M224.081 350.938L221.744 348.392C239.649 331.985 249.915 308.666 249.915 284.395C249.915 267.312 244.951 250.777 235.572 236.579L238.456 234.677C248.223 249.439 253.38 266.635 253.38 284.411C253.364 309.632 242.695 333.887 224.081 350.938Z" fill="#EBB964"/>
<path d="M217.119 216.434C201.631 204.105 182.953 197.594 163.13 197.594C145.741 197.594 128.964 202.719 114.605 212.421L112.671 209.552C127.594 199.463 145.048 194.145 163.13 194.145C183.759 194.145 203.179 200.914 219.279 213.742L217.119 216.434Z" fill="#EBB964"/>
<path d="M163.13 359.125C150.979 359.125 138.908 356.143 128.239 350.503L129.045 348.972C139.472 354.484 151.253 357.4 163.114 357.4C195.878 357.4 224.822 335.37 233.509 303.815L235.169 304.282C226.305 336.579 196.668 359.125 163.13 359.125Z" fill="#EBB964"/>
<path d="M110.286 337.255C96.1681 323.138 88.3841 304.363 88.3841 284.395C88.3841 243.186 121.905 209.649 163.13 209.649C204.339 209.649 237.876 243.186 237.876 284.395H236.152C236.152 244.137 203.404 211.389 163.146 211.389C122.888 211.389 90.1407 244.137 90.1407 284.395C90.1407 303.895 97.7313 322.235 111.543 336.031L110.286 337.255Z" fill="#EBB964"/>
<path d="M163.13 330.873C137.49 330.873 116.635 310.019 116.635 284.379C116.635 258.738 137.49 237.884 163.13 237.884V241.349C139.407 241.349 120.1 260.656 120.1 284.379C120.1 308.101 139.407 327.408 163.13 327.408C186.853 327.408 206.16 308.101 206.16 284.379H209.625C209.609 310.019 188.755 330.873 163.13 330.873Z" fill="#EBB964"/>
<path d="M163.13 307.489C150.382 307.489 140.02 297.126 140.02 284.379H141.744C141.744 296.159 151.333 305.749 163.114 305.749C174.895 305.749 184.484 296.159 184.484 284.379C184.484 272.598 174.895 263.009 163.114 263.009C156.571 263.009 150.479 265.942 146.386 271.067L145.032 269.987C149.448 264.443 156.039 261.268 163.114 261.268C175.862 261.268 186.224 271.631 186.224 284.379C186.224 297.126 175.862 307.489 163.13 307.489Z" fill="#EBB964"/>
<path d="M315.552 49.645L382.496 116.589C364.013 135.073 334.035 135.073 315.552 116.589C297.068 98.1062 297.068 68.1378 315.552 49.645Z" fill="#1F2627"/>
<path d="M147.923 526.156L96.426 474.659C110.651 460.434 133.708 460.434 147.923 474.659C162.148 488.875 162.148 511.931 147.923 526.156Z" fill="#3C507B"/>
<path d="M458.751 544.671C461.268 545.728 463.827 546.618 466.428 547.355L550.22 463.563C549.483 460.963 548.593 458.404 547.536 455.887L458.751 544.671Z" fill="#FFC263"/>
<path d="M447.917 538.928C450.059 540.332 452.256 541.584 454.495 542.71L545.575 451.631C544.448 449.378 543.196 447.181 541.792 445.053L447.917 538.928Z" fill="#FFC263"/>
<path d="M438.641 531.598C440.449 533.295 442.326 534.881 444.259 536.341L539.205 441.395C537.745 439.462 536.159 437.584 534.462 435.776L438.641 531.598Z" fill="#FFC263"/>
<path d="M463.09 417.933C453.563 421.174 444.621 426.584 437.028 434.163C429.434 441.757 424.038 450.699 420.798 460.226L463.09 417.933Z" fill="#FFC263"/>
<path d="M551.485 495.509C552.25 491.656 552.681 487.762 552.779 483.854L486.718 549.914C490.626 549.817 494.534 549.386 498.373 548.621L551.485 495.509Z" fill="#FFC263"/>
<path d="M471.448 548.579C474.48 549.191 477.526 549.595 480.599 549.789L552.653 477.735C552.459 474.662 552.055 471.602 551.443 468.584L471.448 548.579Z" fill="#FFC263"/>
<path d="M424.413 512.629C425.54 514.882 426.792 517.079 428.196 519.207L522.071 425.332C519.929 423.927 517.732 422.676 515.493 421.549L424.413 512.629Z" fill="#FFC263"/>
<path d="M418.503 468.751C417.738 472.603 417.307 476.497 417.209 480.405L483.269 414.345C479.362 414.443 475.454 414.874 471.615 415.639L418.503 468.751Z" fill="#FFC263"/>
<path d="M506.898 546.326C516.425 543.086 525.367 537.676 532.961 530.096C540.554 522.503 545.95 513.56 549.19 504.034L506.898 546.326Z" fill="#FFC263"/>
<path d="M419.768 500.682C420.506 503.283 421.396 505.842 422.453 508.359L511.237 419.574C508.72 418.517 506.161 417.627 503.56 416.89L419.768 500.682Z" fill="#FFC263"/>
<path d="M417.335 486.525C417.529 489.598 417.933 492.658 418.545 495.676L498.54 415.68C495.508 415.068 492.462 414.665 489.389 414.47L417.335 486.525Z" fill="#FFC263"/>
<path d="M430.783 522.865C432.243 524.798 433.829 526.675 435.525 528.483L531.361 432.647C529.553 430.951 527.676 429.365 525.743 427.905L430.783 522.865Z" fill="#FFC263"/>
</svg>
