<svg width="22" height="34" viewBox="0 0 22 34" fill="none" xmlns="http://www.w3.org/2000/svg">
<mask id="path-1-outside-1_148_52" maskUnits="userSpaceOnUse" x="-1.44248e-06" y="-0.23523" width="22" height="34" fill="black">
<rect fill="white" x="-1.44248e-06" y="-0.23523" width="22" height="34"/>
<path fill-rule="evenodd" clip-rule="evenodd" d="M11 32.7648L11 22.1765C10.9676 22.1765 10.9352 22.1764 10.9029 22.176C5.42478 22.1209 1 17.4017 1 11.5883C1 5.77488 5.42478 1.05572 10.9029 1.00055C10.9352 1.00023 10.9676 1.00007 11 1.00007L11 1.10286L11 11.5883C16.5228 11.5883 21 16.3288 21 22.1765C21 28.0243 16.5228 32.7648 11 32.7648ZM1.09709 11.5883C1.09709 5.83166 5.4784 1.15852 10.9029 1.10336L10.9029 1.10383L10.9029 1.13884L10.9029 1.17407L10.9029 1.20951L10.9029 1.24516L10.9029 1.28103L10.9029 1.3171L10.9029 1.35337L10.9029 1.38985L10.9029 1.42653L10.9029 1.46342L10.9029 1.50052L10.9029 1.53781L10.9029 1.57531L10.9029 1.613L10.9029 1.65089L10.9029 1.68898L10.9029 1.72726L10.9029 1.76574L10.9029 1.80442L10.9029 1.84328L10.9029 1.88234L10.9029 1.92159L10.9029 1.96103L10.9029 2.00065L10.9029 2.04046L10.9029 2.08046L10.9029 2.12065L10.9029 2.16101L10.9029 2.20156L10.9029 2.24229L10.9029 2.2832L10.9029 2.32429L10.9029 2.36556L10.9029 2.40701L10.9029 2.44863L10.9029 2.49043L10.9029 2.5324L10.9029 2.57454L10.9029 2.61685L10.9029 2.65934L10.9029 2.70199L10.9029 2.74481L10.9029 2.78781L10.9029 2.83096L10.9029 2.87428L10.9029 2.91777L10.9029 2.96141L10.9029 3.00522L10.9029 3.04919L10.9029 3.09332L10.9029 3.13761L10.9029 3.18205L10.9029 3.22664L10.9029 3.2714L10.9029 3.31631L10.9029 3.36137L10.9029 3.40658L10.9029 3.45194L10.9029 3.49746L10.9029 3.54312L10.9029 3.58892L10.9029 3.63488L10.9029 3.68098L10.9029 3.72722L10.9029 3.77361L10.9029 3.82013L10.9029 3.8668L10.9029 3.91361L10.9029 3.96055L10.9029 4.00763L10.9029 4.05485L10.9029 4.1022L10.9029 4.14969L10.9029 4.19731L10.9029 4.24506L10.9029 4.29294L10.9029 4.34095L10.9029 4.38909L10.9029 4.43736L10.9029 4.48575L10.9029 4.53427L10.9029 4.58291L10.9029 4.63167L10.9029 4.68056L10.9029 4.72956L10.9029 4.77869L10.9029 4.82793L10.9029 4.87729L10.9029 4.92677L10.9029 4.97636L10.9029 5.02607L10.9029 5.07589L10.9029 5.12581L10.9029 5.17586L10.9029 5.22601L10.9029 5.27627L10.9029 5.32663L10.9029 5.3771L10.9029 5.42768L10.9029 5.47836L10.9029 5.52915L10.9029 5.58003L10.9029 5.63102L10.9029 5.6821L10.9029 5.73328L10.9029 5.78457L10.9029 5.83594L10.9029 5.88741L10.9029 5.93898L10.9029 5.99063L10.9029 6.04239L10.9029 6.09423L10.9029 6.14616L10.9029 6.19818L10.9029 6.25028L10.9029 6.30248L10.9029 6.35475L10.9029 6.40711L10.9029 6.45956L10.9029 6.51208L10.9029 6.56469L10.9029 6.61737L10.9029 6.67014L10.9029 6.72298L10.9029 6.77589L10.9029 6.82889L10.9029 6.88195L10.9029 6.93509L10.9029 6.9883L10.9029 7.04158L10.9029 7.09493L10.9029 7.14835L10.9029 7.20184L10.9029 7.25539L10.9029 7.30901L10.9029 7.36269L10.9029 7.41644L10.9029 7.47024L10.9029 7.52411L10.9029 7.57804L10.9029 7.63202L10.9029 7.68606L10.9029 7.74016L10.9029 7.79431L10.9029 7.84852L10.9029 7.90278L10.9029 7.95709L10.9029 8.01145L10.9029 8.06587L10.9029 8.12033L10.9029 8.17483L10.9029 8.22939L10.9029 8.28399L10.9029 8.33863L10.9029 8.39332L10.9029 8.44804L10.9029 8.50281L10.9029 8.55762L10.9029 8.61247L10.9029 8.66735L10.9029 8.72227L10.9029 8.77723L10.9029 8.83221L10.9029 8.88724L10.9029 8.94229L10.9029 8.99738L10.9029 9.05249L10.9029 9.10763L10.9029 9.1628L10.9029 9.218L10.9029 9.27322L10.9029 9.32846L10.9029 9.38373L10.9029 9.43902L10.9029 9.49433L10.9029 9.54966L10.9029 9.60501L10.9029 9.66038L10.9029 9.71576L10.9029 9.77116L10.9029 9.82657L10.9029 9.88199L10.9029 9.93743L10.9029 9.99287L10.9029 10.0483L10.9029 10.1038L10.9029 10.1593L10.9029 10.2147L10.9029 10.2702L10.9029 10.3257L10.9029 10.3812L10.9029 10.4367L10.9029 10.4922L10.9029 10.5477L10.9029 10.6032L10.9029 10.6587L10.9029 10.7142L10.9029 10.7696L10.9029 10.8251L10.9029 10.8806L10.9029 10.936L10.9029 10.9915L10.9029 11.0469L10.9029 11.1024L10.9029 11.1578L10.9029 11.2132L10.9029 11.2686L10.9029 11.3239L10.9029 11.3793L10.9029 11.4346L10.9029 11.4899L10.9029 11.5452L10.9029 11.6005L10.9029 11.6558L10.9029 11.711L10.9029 11.7662L10.9029 11.8214L10.9029 11.8765L10.9029 11.9316L10.9029 11.9867L10.9029 12.0418L10.9029 12.0968L10.9029 12.1518L10.9029 12.2068L10.9029 12.2617L10.9029 12.3166L10.9029 12.3715L10.9029 12.4263L10.9029 12.4811L10.9029 12.5358L10.9029 12.5905L10.9029 12.6452L10.9029 12.6998L10.9029 12.7544L10.9029 12.8089L10.9029 12.8634L10.9029 12.9178L10.9029 12.9722L10.9029 13.0265L10.9029 13.0808L10.9029 13.135L10.9029 13.1892L10.9029 13.2433L10.9029 13.2973L10.9029 13.3514L10.9029 13.4053L10.9029 13.4592L10.9029 13.513L10.9029 13.5668L10.9029 13.6205L10.9029 13.6741L10.9029 13.7277L10.9029 13.7812L10.9029 13.8346L10.9029 13.888L10.9029 13.9413L10.9029 13.9945L10.9029 14.0477L10.9029 14.1008L10.9029 14.1538L10.9029 14.2068L10.9029 14.2596L10.9029 14.3124L10.9029 14.3651L10.9029 14.4177L10.9029 14.4703L10.9029 14.5228L10.9029 14.5752L10.9029 14.6275L10.9029 14.6797L10.9029 14.7318L10.9029 14.7839L10.9029 14.8358L10.9029 14.8877L10.9029 14.9395L10.9029 14.9912L10.9029 15.0428L10.9029 15.0943L10.9029 15.1457L10.9029 15.197L10.9029 15.2482L10.9029 15.2993L10.9029 15.3503L10.9029 15.4012L10.9029 15.4521L10.9029 15.5028L10.9029 15.5534L10.9029 15.6039L10.9029 15.6543L10.9029 15.7046L10.9029 15.7548L10.9029 15.8048L10.9029 15.8548L10.9029 15.9047L10.9029 15.9544L10.9029 16.004L10.9029 16.0535L10.9029 16.1029L10.9029 16.1522L10.9029 16.2014L10.9029 16.2504L10.9029 16.2994L10.9029 16.3482L10.9029 16.3968L10.9029 16.4454L10.9029 16.4938L10.9029 16.5421L10.9029 16.5903L10.9029 16.6384L10.9029 16.6863L10.9029 16.7341L10.9029 16.7817L10.9029 16.8293L10.9029 16.8767L10.9029 16.9239L10.9029 16.9711L10.9029 17.018L10.9029 17.0649L10.9029 17.1116L10.9029 17.1582L10.9029 17.2046L10.9029 17.2509L10.9029 17.297L10.9029 17.343L10.9029 17.3889L10.9029 17.4346L10.9029 17.4802L10.9029 17.5256L10.9029 17.5708L10.9029 17.6159L10.9029 17.6609L10.9029 17.7057L10.9029 17.7504L10.9029 17.7949L10.9029 17.8392L10.9029 17.8834L10.9029 17.9274L10.9029 17.9712L10.9029 18.0149L10.9029 18.0585L10.9029 18.1019L10.9029 18.1451L10.9029 18.1881L10.9029 18.231L10.9029 18.2737L10.9029 18.3162L10.9029 18.3586L10.9029 18.4008L10.9029 18.4428L10.9029 18.4847L10.9029 18.5264L10.9029 18.5679L10.9029 18.6092L10.9029 18.6503L10.9029 18.6913L10.9029 18.7321L10.9029 18.7727L10.9029 18.8131L10.9029 18.8534L10.9029 18.8934L10.9029 18.9333L10.9029 18.973L10.9029 19.0125L10.9029 19.0518L10.9029 19.0909L10.9029 19.1298L10.9029 19.1686L10.9029 19.2071L10.9029 19.2455L10.9029 19.2836L10.9029 19.3216L10.9029 19.3593L10.9029 19.3969L10.9029 19.4342L10.9029 19.4714L10.9029 19.5083L10.9029 19.5451L10.9029 19.5816L10.9029 19.618L10.9029 19.6541L10.9029 19.69L10.9029 19.7258L10.9029 19.7613L10.9029 19.7966L10.9029 19.8317L10.9029 19.8665L10.9029 19.9012L10.9029 19.9356L10.9029 19.9699L10.9029 20.0039L10.9029 20.0376L10.9029 20.0712L10.9029 20.1046L10.9029 20.1377L10.9029 20.1706L10.9029 20.2033L10.9029 20.2357L10.9029 20.2679L10.9029 20.2999L10.9029 20.3317L10.9029 20.3632L10.9029 20.3946L10.9029 20.4256L10.9029 20.4565L10.9029 20.4871L10.9029 20.5175L10.9029 20.5476L10.9029 20.5775L10.9029 20.6071L10.9029 20.6366L10.9029 20.6657L10.9029 20.6947L10.9029 20.7234L10.9029 20.7518L10.9029 20.78L10.9029 20.808L10.9029 20.8357L10.9029 20.8631L10.9029 20.8904L10.9029 20.9173L10.9029 20.944L10.9029 20.9705L10.9029 20.9967L10.9029 21.0226L10.9029 21.0483L10.9029 21.0737L10.9029 21.0989L10.9029 21.1238L10.9029 21.1485L10.9029 21.1729L10.9029 21.197L10.9029 21.2208L10.9029 21.2444L10.9029 21.2678L10.9029 21.2908L10.9029 21.3136L10.9029 21.3361L10.9029 21.3584L10.9029 21.3804L10.9029 21.4021L10.9029 21.4235L10.9029 21.4447L10.9029 21.4655L10.9029 21.4861L10.9029 21.5065L10.9029 21.5265L10.9029 21.5463L10.9029 21.5657L10.9029 21.5849L10.9029 21.6038L10.9029 21.6225L10.9029 21.6408L10.9029 21.6589L10.9029 21.6766L10.9029 21.6941L10.9029 21.7113L10.9029 21.7282L10.9029 21.7448L10.9029 21.7611L10.9029 21.7771L10.9029 21.7928L10.9029 21.8082L10.9029 21.8233L10.9029 21.8381L10.9029 21.8527L10.9029 21.8669L10.9029 21.8808L10.9029 21.8944L10.9029 21.9077L10.9029 21.9207L10.9029 21.9334L10.9029 21.9457L10.9029 21.9578L10.9029 21.9696L10.9029 21.981L10.9029 21.9921L10.9029 22.003L10.9029 22.0135L10.9029 22.0236L10.9029 22.0335L10.9029 22.0431L10.9029 22.0523L10.9029 22.0612L10.9029 22.0698L10.9029 22.0732C5.4784 22.0181 1.09709 17.3449 1.09709 11.5883Z"/>
</mask>
<path fill-rule="evenodd" clip-rule="evenodd" d="M11 32.7648L11 22.1765C10.9676 22.1765 10.9352 22.1764 10.9029 22.176C5.42478 22.1209 1 17.4017 1 11.5883C1 5.77488 5.42478 1.05572 10.9029 1.00055C10.9352 1.00023 10.9676 1.00007 11 1.00007L11 1.10286L11 11.5883C16.5228 11.5883 21 16.3288 21 22.1765C21 28.0243 16.5228 32.7648 11 32.7648ZM1.09709 11.5883C1.09709 5.83166 5.4784 1.15852 10.9029 1.10336L10.9029 1.10383L10.9029 1.13884L10.9029 1.17407L10.9029 1.20951L10.9029 1.24516L10.9029 1.28103L10.9029 1.3171L10.9029 1.35337L10.9029 1.38985L10.9029 1.42653L10.9029 1.46342L10.9029 1.50052L10.9029 1.53781L10.9029 1.57531L10.9029 1.613L10.9029 1.65089L10.9029 1.68898L10.9029 1.72726L10.9029 1.76574L10.9029 1.80442L10.9029 1.84328L10.9029 1.88234L10.9029 1.92159L10.9029 1.96103L10.9029 2.00065L10.9029 2.04046L10.9029 2.08046L10.9029 2.12065L10.9029 2.16101L10.9029 2.20156L10.9029 2.24229L10.9029 2.2832L10.9029 2.32429L10.9029 2.36556L10.9029 2.40701L10.9029 2.44863L10.9029 2.49043L10.9029 2.5324L10.9029 2.57454L10.9029 2.61685L10.9029 2.65934L10.9029 2.70199L10.9029 2.74481L10.9029 2.78781L10.9029 2.83096L10.9029 2.87428L10.9029 2.91777L10.9029 2.96141L10.9029 3.00522L10.9029 3.04919L10.9029 3.09332L10.9029 3.13761L10.9029 3.18205L10.9029 3.22664L10.9029 3.2714L10.9029 3.31631L10.9029 3.36137L10.9029 3.40658L10.9029 3.45194L10.9029 3.49746L10.9029 3.54312L10.9029 3.58892L10.9029 3.63488L10.9029 3.68098L10.9029 3.72722L10.9029 3.77361L10.9029 3.82013L10.9029 3.8668L10.9029 3.91361L10.9029 3.96055L10.9029 4.00763L10.9029 4.05485L10.9029 4.1022L10.9029 4.14969L10.9029 4.19731L10.9029 4.24506L10.9029 4.29294L10.9029 4.34095L10.9029 4.38909L10.9029 4.43736L10.9029 4.48575L10.9029 4.53427L10.9029 4.58291L10.9029 4.63167L10.9029 4.68056L10.9029 4.72956L10.9029 4.77869L10.9029 4.82793L10.9029 4.87729L10.9029 4.92677L10.9029 4.97636L10.9029 5.02607L10.9029 5.07589L10.9029 5.12581L10.9029 5.17586L10.9029 5.22601L10.9029 5.27627L10.9029 5.32663L10.9029 5.3771L10.9029 5.42768L10.9029 5.47836L10.9029 5.52915L10.9029 5.58003L10.9029 5.63102L10.9029 5.6821L10.9029 5.73328L10.9029 5.78457L10.9029 5.83594L10.9029 5.88741L10.9029 5.93898L10.9029 5.99063L10.9029 6.04239L10.9029 6.09423L10.9029 6.14616L10.9029 6.19818L10.9029 6.25028L10.9029 6.30248L10.9029 6.35475L10.9029 6.40711L10.9029 6.45956L10.9029 6.51208L10.9029 6.56469L10.9029 6.61737L10.9029 6.67014L10.9029 6.72298L10.9029 6.77589L10.9029 6.82889L10.9029 6.88195L10.9029 6.93509L10.9029 6.9883L10.9029 7.04158L10.9029 7.09493L10.9029 7.14835L10.9029 7.20184L10.9029 7.25539L10.9029 7.30901L10.9029 7.36269L10.9029 7.41644L10.9029 7.47024L10.9029 7.52411L10.9029 7.57804L10.9029 7.63202L10.9029 7.68606L10.9029 7.74016L10.9029 7.79431L10.9029 7.84852L10.9029 7.90278L10.9029 7.95709L10.9029 8.01145L10.9029 8.06587L10.9029 8.12033L10.9029 8.17483L10.9029 8.22939L10.9029 8.28399L10.9029 8.33863L10.9029 8.39332L10.9029 8.44804L10.9029 8.50281L10.9029 8.55762L10.9029 8.61247L10.9029 8.66735L10.9029 8.72227L10.9029 8.77723L10.9029 8.83221L10.9029 8.88724L10.9029 8.94229L10.9029 8.99738L10.9029 9.05249L10.9029 9.10763L10.9029 9.1628L10.9029 9.218L10.9029 9.27322L10.9029 9.32846L10.9029 9.38373L10.9029 9.43902L10.9029 9.49433L10.9029 9.54966L10.9029 9.60501L10.9029 9.66038L10.9029 9.71576L10.9029 9.77116L10.9029 9.82657L10.9029 9.88199L10.9029 9.93743L10.9029 9.99287L10.9029 10.0483L10.9029 10.1038L10.9029 10.1593L10.9029 10.2147L10.9029 10.2702L10.9029 10.3257L10.9029 10.3812L10.9029 10.4367L10.9029 10.4922L10.9029 10.5477L10.9029 10.6032L10.9029 10.6587L10.9029 10.7142L10.9029 10.7696L10.9029 10.8251L10.9029 10.8806L10.9029 10.936L10.9029 10.9915L10.9029 11.0469L10.9029 11.1024L10.9029 11.1578L10.9029 11.2132L10.9029 11.2686L10.9029 11.3239L10.9029 11.3793L10.9029 11.4346L10.9029 11.4899L10.9029 11.5452L10.9029 11.6005L10.9029 11.6558L10.9029 11.711L10.9029 11.7662L10.9029 11.8214L10.9029 11.8765L10.9029 11.9316L10.9029 11.9867L10.9029 12.0418L10.9029 12.0968L10.9029 12.1518L10.9029 12.2068L10.9029 12.2617L10.9029 12.3166L10.9029 12.3715L10.9029 12.4263L10.9029 12.4811L10.9029 12.5358L10.9029 12.5905L10.9029 12.6452L10.9029 12.6998L10.9029 12.7544L10.9029 12.8089L10.9029 12.8634L10.9029 12.9178L10.9029 12.9722L10.9029 13.0265L10.9029 13.0808L10.9029 13.135L10.9029 13.1892L10.9029 13.2433L10.9029 13.2973L10.9029 13.3514L10.9029 13.4053L10.9029 13.4592L10.9029 13.513L10.9029 13.5668L10.9029 13.6205L10.9029 13.6741L10.9029 13.7277L10.9029 13.7812L10.9029 13.8346L10.9029 13.888L10.9029 13.9413L10.9029 13.9945L10.9029 14.0477L10.9029 14.1008L10.9029 14.1538L10.9029 14.2068L10.9029 14.2596L10.9029 14.3124L10.9029 14.3651L10.9029 14.4177L10.9029 14.4703L10.9029 14.5228L10.9029 14.5752L10.9029 14.6275L10.9029 14.6797L10.9029 14.7318L10.9029 14.7839L10.9029 14.8358L10.9029 14.8877L10.9029 14.9395L10.9029 14.9912L10.9029 15.0428L10.9029 15.0943L10.9029 15.1457L10.9029 15.197L10.9029 15.2482L10.9029 15.2993L10.9029 15.3503L10.9029 15.4012L10.9029 15.4521L10.9029 15.5028L10.9029 15.5534L10.9029 15.6039L10.9029 15.6543L10.9029 15.7046L10.9029 15.7548L10.9029 15.8048L10.9029 15.8548L10.9029 15.9047L10.9029 15.9544L10.9029 16.004L10.9029 16.0535L10.9029 16.1029L10.9029 16.1522L10.9029 16.2014L10.9029 16.2504L10.9029 16.2994L10.9029 16.3482L10.9029 16.3968L10.9029 16.4454L10.9029 16.4938L10.9029 16.5421L10.9029 16.5903L10.9029 16.6384L10.9029 16.6863L10.9029 16.7341L10.9029 16.7817L10.9029 16.8293L10.9029 16.8767L10.9029 16.9239L10.9029 16.9711L10.9029 17.018L10.9029 17.0649L10.9029 17.1116L10.9029 17.1582L10.9029 17.2046L10.9029 17.2509L10.9029 17.297L10.9029 17.343L10.9029 17.3889L10.9029 17.4346L10.9029 17.4802L10.9029 17.5256L10.9029 17.5708L10.9029 17.6159L10.9029 17.6609L10.9029 17.7057L10.9029 17.7504L10.9029 17.7949L10.9029 17.8392L10.9029 17.8834L10.9029 17.9274L10.9029 17.9712L10.9029 18.0149L10.9029 18.0585L10.9029 18.1019L10.9029 18.1451L10.9029 18.1881L10.9029 18.231L10.9029 18.2737L10.9029 18.3162L10.9029 18.3586L10.9029 18.4008L10.9029 18.4428L10.9029 18.4847L10.9029 18.5264L10.9029 18.5679L10.9029 18.6092L10.9029 18.6503L10.9029 18.6913L10.9029 18.7321L10.9029 18.7727L10.9029 18.8131L10.9029 18.8534L10.9029 18.8934L10.9029 18.9333L10.9029 18.973L10.9029 19.0125L10.9029 19.0518L10.9029 19.0909L10.9029 19.1298L10.9029 19.1686L10.9029 19.2071L10.9029 19.2455L10.9029 19.2836L10.9029 19.3216L10.9029 19.3593L10.9029 19.3969L10.9029 19.4342L10.9029 19.4714L10.9029 19.5083L10.9029 19.5451L10.9029 19.5816L10.9029 19.618L10.9029 19.6541L10.9029 19.69L10.9029 19.7258L10.9029 19.7613L10.9029 19.7966L10.9029 19.8317L10.9029 19.8665L10.9029 19.9012L10.9029 19.9356L10.9029 19.9699L10.9029 20.0039L10.9029 20.0376L10.9029 20.0712L10.9029 20.1046L10.9029 20.1377L10.9029 20.1706L10.9029 20.2033L10.9029 20.2357L10.9029 20.2679L10.9029 20.2999L10.9029 20.3317L10.9029 20.3632L10.9029 20.3946L10.9029 20.4256L10.9029 20.4565L10.9029 20.4871L10.9029 20.5175L10.9029 20.5476L10.9029 20.5775L10.9029 20.6071L10.9029 20.6366L10.9029 20.6657L10.9029 20.6947L10.9029 20.7234L10.9029 20.7518L10.9029 20.78L10.9029 20.808L10.9029 20.8357L10.9029 20.8631L10.9029 20.8904L10.9029 20.9173L10.9029 20.944L10.9029 20.9705L10.9029 20.9967L10.9029 21.0226L10.9029 21.0483L10.9029 21.0737L10.9029 21.0989L10.9029 21.1238L10.9029 21.1485L10.9029 21.1729L10.9029 21.197L10.9029 21.2208L10.9029 21.2444L10.9029 21.2678L10.9029 21.2908L10.9029 21.3136L10.9029 21.3361L10.9029 21.3584L10.9029 21.3804L10.9029 21.4021L10.9029 21.4235L10.9029 21.4447L10.9029 21.4655L10.9029 21.4861L10.9029 21.5065L10.9029 21.5265L10.9029 21.5463L10.9029 21.5657L10.9029 21.5849L10.9029 21.6038L10.9029 21.6225L10.9029 21.6408L10.9029 21.6589L10.9029 21.6766L10.9029 21.6941L10.9029 21.7113L10.9029 21.7282L10.9029 21.7448L10.9029 21.7611L10.9029 21.7771L10.9029 21.7928L10.9029 21.8082L10.9029 21.8233L10.9029 21.8381L10.9029 21.8527L10.9029 21.8669L10.9029 21.8808L10.9029 21.8944L10.9029 21.9077L10.9029 21.9207L10.9029 21.9334L10.9029 21.9457L10.9029 21.9578L10.9029 21.9696L10.9029 21.981L10.9029 21.9921L10.9029 22.003L10.9029 22.0135L10.9029 22.0236L10.9029 22.0335L10.9029 22.0431L10.9029 22.0523L10.9029 22.0612L10.9029 22.0698L10.9029 22.0732C5.4784 22.0181 1.09709 17.3449 1.09709 11.5883Z" fill="#EBB964"/>
<path fill-rule="evenodd" clip-rule="evenodd" d="M11 32.7648L11 22.1765C10.9676 22.1765 10.9352 22.1764 10.9029 22.176C5.42478 22.1209 1 17.4017 1 11.5883C1 5.77488 5.42478 1.05572 10.9029 1.00055C10.9352 1.00023 10.9676 1.00007 11 1.00007L11 1.10286L11 11.5883C16.5228 11.5883 21 16.3288 21 22.1765C21 28.0243 16.5228 32.7648 11 32.7648ZM1.09709 11.5883C1.09709 5.83166 5.4784 1.15852 10.9029 1.10336L10.9029 1.10383L10.9029 1.13884L10.9029 1.17407L10.9029 1.20951L10.9029 1.24516L10.9029 1.28103L10.9029 1.3171L10.9029 1.35337L10.9029 1.38985L10.9029 1.42653L10.9029 1.46342L10.9029 1.50052L10.9029 1.53781L10.9029 1.57531L10.9029 1.613L10.9029 1.65089L10.9029 1.68898L10.9029 1.72726L10.9029 1.76574L10.9029 1.80442L10.9029 1.84328L10.9029 1.88234L10.9029 1.92159L10.9029 1.96103L10.9029 2.00065L10.9029 2.04046L10.9029 2.08046L10.9029 2.12065L10.9029 2.16101L10.9029 2.20156L10.9029 2.24229L10.9029 2.2832L10.9029 2.32429L10.9029 2.36556L10.9029 2.40701L10.9029 2.44863L10.9029 2.49043L10.9029 2.5324L10.9029 2.57454L10.9029 2.61685L10.9029 2.65934L10.9029 2.70199L10.9029 2.74481L10.9029 2.78781L10.9029 2.83096L10.9029 2.87428L10.9029 2.91777L10.9029 2.96141L10.9029 3.00522L10.9029 3.04919L10.9029 3.09332L10.9029 3.13761L10.9029 3.18205L10.9029 3.22664L10.9029 3.2714L10.9029 3.31631L10.9029 3.36137L10.9029 3.40658L10.9029 3.45194L10.9029 3.49746L10.9029 3.54312L10.9029 3.58892L10.9029 3.63488L10.9029 3.68098L10.9029 3.72722L10.9029 3.77361L10.9029 3.82013L10.9029 3.8668L10.9029 3.91361L10.9029 3.96055L10.9029 4.00763L10.9029 4.05485L10.9029 4.1022L10.9029 4.14969L10.9029 4.19731L10.9029 4.24506L10.9029 4.29294L10.9029 4.34095L10.9029 4.38909L10.9029 4.43736L10.9029 4.48575L10.9029 4.53427L10.9029 4.58291L10.9029 4.63167L10.9029 4.68056L10.9029 4.72956L10.9029 4.77869L10.9029 4.82793L10.9029 4.87729L10.9029 4.92677L10.9029 4.97636L10.9029 5.02607L10.9029 5.07589L10.9029 5.12581L10.9029 5.17586L10.9029 5.22601L10.9029 5.27627L10.9029 5.32663L10.9029 5.3771L10.9029 5.42768L10.9029 5.47836L10.9029 5.52915L10.9029 5.58003L10.9029 5.63102L10.9029 5.6821L10.9029 5.73328L10.9029 5.78457L10.9029 5.83594L10.9029 5.88741L10.9029 5.93898L10.9029 5.99063L10.9029 6.04239L10.9029 6.09423L10.9029 6.14616L10.9029 6.19818L10.9029 6.25028L10.9029 6.30248L10.9029 6.35475L10.9029 6.40711L10.9029 6.45956L10.9029 6.51208L10.9029 6.56469L10.9029 6.61737L10.9029 6.67014L10.9029 6.72298L10.9029 6.77589L10.9029 6.82889L10.9029 6.88195L10.9029 6.93509L10.9029 6.9883L10.9029 7.04158L10.9029 7.09493L10.9029 7.14835L10.9029 7.20184L10.9029 7.25539L10.9029 7.30901L10.9029 7.36269L10.9029 7.41644L10.9029 7.47024L10.9029 7.52411L10.9029 7.57804L10.9029 7.63202L10.9029 7.68606L10.9029 7.74016L10.9029 7.79431L10.9029 7.84852L10.9029 7.90278L10.9029 7.95709L10.9029 8.01145L10.9029 8.06587L10.9029 8.12033L10.9029 8.17483L10.9029 8.22939L10.9029 8.28399L10.9029 8.33863L10.9029 8.39332L10.9029 8.44804L10.9029 8.50281L10.9029 8.55762L10.9029 8.61247L10.9029 8.66735L10.9029 8.72227L10.9029 8.77723L10.9029 8.83221L10.9029 8.88724L10.9029 8.94229L10.9029 8.99738L10.9029 9.05249L10.9029 9.10763L10.9029 9.1628L10.9029 9.218L10.9029 9.27322L10.9029 9.32846L10.9029 9.38373L10.9029 9.43902L10.9029 9.49433L10.9029 9.54966L10.9029 9.60501L10.9029 9.66038L10.9029 9.71576L10.9029 9.77116L10.9029 9.82657L10.9029 9.88199L10.9029 9.93743L10.9029 9.99287L10.9029 10.0483L10.9029 10.1038L10.9029 10.1593L10.9029 10.2147L10.9029 10.2702L10.9029 10.3257L10.9029 10.3812L10.9029 10.4367L10.9029 10.4922L10.9029 10.5477L10.9029 10.6032L10.9029 10.6587L10.9029 10.7142L10.9029 10.7696L10.9029 10.8251L10.9029 10.8806L10.9029 10.936L10.9029 10.9915L10.9029 11.0469L10.9029 11.1024L10.9029 11.1578L10.9029 11.2132L10.9029 11.2686L10.9029 11.3239L10.9029 11.3793L10.9029 11.4346L10.9029 11.4899L10.9029 11.5452L10.9029 11.6005L10.9029 11.6558L10.9029 11.711L10.9029 11.7662L10.9029 11.8214L10.9029 11.8765L10.9029 11.9316L10.9029 11.9867L10.9029 12.0418L10.9029 12.0968L10.9029 12.1518L10.9029 12.2068L10.9029 12.2617L10.9029 12.3166L10.9029 12.3715L10.9029 12.4263L10.9029 12.4811L10.9029 12.5358L10.9029 12.5905L10.9029 12.6452L10.9029 12.6998L10.9029 12.7544L10.9029 12.8089L10.9029 12.8634L10.9029 12.9178L10.9029 12.9722L10.9029 13.0265L10.9029 13.0808L10.9029 13.135L10.9029 13.1892L10.9029 13.2433L10.9029 13.2973L10.9029 13.3514L10.9029 13.4053L10.9029 13.4592L10.9029 13.513L10.9029 13.5668L10.9029 13.6205L10.9029 13.6741L10.9029 13.7277L10.9029 13.7812L10.9029 13.8346L10.9029 13.888L10.9029 13.9413L10.9029 13.9945L10.9029 14.0477L10.9029 14.1008L10.9029 14.1538L10.9029 14.2068L10.9029 14.2596L10.9029 14.3124L10.9029 14.3651L10.9029 14.4177L10.9029 14.4703L10.9029 14.5228L10.9029 14.5752L10.9029 14.6275L10.9029 14.6797L10.9029 14.7318L10.9029 14.7839L10.9029 14.8358L10.9029 14.8877L10.9029 14.9395L10.9029 14.9912L10.9029 15.0428L10.9029 15.0943L10.9029 15.1457L10.9029 15.197L10.9029 15.2482L10.9029 15.2993L10.9029 15.3503L10.9029 15.4012L10.9029 15.4521L10.9029 15.5028L10.9029 15.5534L10.9029 15.6039L10.9029 15.6543L10.9029 15.7046L10.9029 15.7548L10.9029 15.8048L10.9029 15.8548L10.9029 15.9047L10.9029 15.9544L10.9029 16.004L10.9029 16.0535L10.9029 16.1029L10.9029 16.1522L10.9029 16.2014L10.9029 16.2504L10.9029 16.2994L10.9029 16.3482L10.9029 16.3968L10.9029 16.4454L10.9029 16.4938L10.9029 16.5421L10.9029 16.5903L10.9029 16.6384L10.9029 16.6863L10.9029 16.7341L10.9029 16.7817L10.9029 16.8293L10.9029 16.8767L10.9029 16.9239L10.9029 16.9711L10.9029 17.018L10.9029 17.0649L10.9029 17.1116L10.9029 17.1582L10.9029 17.2046L10.9029 17.2509L10.9029 17.297L10.9029 17.343L10.9029 17.3889L10.9029 17.4346L10.9029 17.4802L10.9029 17.5256L10.9029 17.5708L10.9029 17.6159L10.9029 17.6609L10.9029 17.7057L10.9029 17.7504L10.9029 17.7949L10.9029 17.8392L10.9029 17.8834L10.9029 17.9274L10.9029 17.9712L10.9029 18.0149L10.9029 18.0585L10.9029 18.1019L10.9029 18.1451L10.9029 18.1881L10.9029 18.231L10.9029 18.2737L10.9029 18.3162L10.9029 18.3586L10.9029 18.4008L10.9029 18.4428L10.9029 18.4847L10.9029 18.5264L10.9029 18.5679L10.9029 18.6092L10.9029 18.6503L10.9029 18.6913L10.9029 18.7321L10.9029 18.7727L10.9029 18.8131L10.9029 18.8534L10.9029 18.8934L10.9029 18.9333L10.9029 18.973L10.9029 19.0125L10.9029 19.0518L10.9029 19.0909L10.9029 19.1298L10.9029 19.1686L10.9029 19.2071L10.9029 19.2455L10.9029 19.2836L10.9029 19.3216L10.9029 19.3593L10.9029 19.3969L10.9029 19.4342L10.9029 19.4714L10.9029 19.5083L10.9029 19.5451L10.9029 19.5816L10.9029 19.618L10.9029 19.6541L10.9029 19.69L10.9029 19.7258L10.9029 19.7613L10.9029 19.7966L10.9029 19.8317L10.9029 19.8665L10.9029 19.9012L10.9029 19.9356L10.9029 19.9699L10.9029 20.0039L10.9029 20.0376L10.9029 20.0712L10.9029 20.1046L10.9029 20.1377L10.9029 20.1706L10.9029 20.2033L10.9029 20.2357L10.9029 20.2679L10.9029 20.2999L10.9029 20.3317L10.9029 20.3632L10.9029 20.3946L10.9029 20.4256L10.9029 20.4565L10.9029 20.4871L10.9029 20.5175L10.9029 20.5476L10.9029 20.5775L10.9029 20.6071L10.9029 20.6366L10.9029 20.6657L10.9029 20.6947L10.9029 20.7234L10.9029 20.7518L10.9029 20.78L10.9029 20.808L10.9029 20.8357L10.9029 20.8631L10.9029 20.8904L10.9029 20.9173L10.9029 20.944L10.9029 20.9705L10.9029 20.9967L10.9029 21.0226L10.9029 21.0483L10.9029 21.0737L10.9029 21.0989L10.9029 21.1238L10.9029 21.1485L10.9029 21.1729L10.9029 21.197L10.9029 21.2208L10.9029 21.2444L10.9029 21.2678L10.9029 21.2908L10.9029 21.3136L10.9029 21.3361L10.9029 21.3584L10.9029 21.3804L10.9029 21.4021L10.9029 21.4235L10.9029 21.4447L10.9029 21.4655L10.9029 21.4861L10.9029 21.5065L10.9029 21.5265L10.9029 21.5463L10.9029 21.5657L10.9029 21.5849L10.9029 21.6038L10.9029 21.6225L10.9029 21.6408L10.9029 21.6589L10.9029 21.6766L10.9029 21.6941L10.9029 21.7113L10.9029 21.7282L10.9029 21.7448L10.9029 21.7611L10.9029 21.7771L10.9029 21.7928L10.9029 21.8082L10.9029 21.8233L10.9029 21.8381L10.9029 21.8527L10.9029 21.8669L10.9029 21.8808L10.9029 21.8944L10.9029 21.9077L10.9029 21.9207L10.9029 21.9334L10.9029 21.9457L10.9029 21.9578L10.9029 21.9696L10.9029 21.981L10.9029 21.9921L10.9029 22.003L10.9029 22.0135L10.9029 22.0236L10.9029 22.0335L10.9029 22.0431L10.9029 22.0523L10.9029 22.0612L10.9029 22.0698L10.9029 22.0732C5.4784 22.0181 1.09709 17.3449 1.09709 11.5883Z" stroke="#EBB964" stroke-width="1.3936" mask="url(#path-1-outside-1_148_52)"/>
<mask id="path-2-outside-2_148_52" maskUnits="userSpaceOnUse" x="-9.61651e-07" y="0.176025" width="12" height="23" fill="black">
<rect fill="white" x="-9.61651e-07" y="0.176025" width="12" height="23"/>
<path fill-rule="evenodd" clip-rule="evenodd" d="M10.9029 13.6741C10.9029 16.0535 10.9352 22.1764 10.9029 22.176C5.42478 22.1209 1.00001 17.4017 1.00001 11.5883C1.00001 5.77486 5.42478 1.0557 10.9029 1.00053C10.9352 1.0002 10.9676 1.00004 11 1.00004L11 1.10284L10.9029 11.711C10.9029 7.632 10.9029 3.42547 10.9029 9.2732C10.9029 15.1209 10.9029 8.22937 10.9029 13.6741ZM1.0971 11.5883C1.09709 5.83164 5.4784 1.1585 10.9029 1.10333L10.9029 1.10381L10.9029 1.13882L10.9029 1.17405L10.9029 1.20949L10.9029 1.24514L10.9029 1.281L10.9029 1.31707L10.9029 1.35335L10.9029 1.38983L10.9029 1.42651L10.9029 1.4634L10.9029 1.5005L10.9029 1.53779L10.9029 1.57528L10.9029 1.61298L10.9029 1.65087L10.9029 1.68896L10.9029 1.72724L10.9029 1.76572L10.9029 1.8044L10.9029 1.84326L10.9029 1.88232L10.9029 1.92157L10.9029 1.961L10.9029 2.00063L10.9029 2.04044L10.9029 2.08044L10.9029 2.12062L10.9029 2.16099L10.9029 2.20153L10.9029 2.24227L10.9029 2.28318L10.9029 2.32427L10.9029 2.36554L10.9029 2.40699L10.9029 2.44861L10.9029 2.49041L10.9029 2.53238L10.9029 2.57452L10.9029 2.61683L10.9029 2.65932L10.9029 2.70197L10.9029 2.74479L10.9029 2.78778L10.9029 2.83094L10.9029 2.87426L10.9029 2.91774L10.9029 2.96139L10.9029 3.0052L10.9029 3.04916L10.9029 3.0933L10.9029 3.13758L10.9029 3.18202L10.9029 3.22662L10.9029 3.27138L10.9029 3.31629L10.9029 3.36135L10.9029 3.40656L10.9029 3.45192L10.9029 3.49743L10.9029 3.5431L10.9029 3.5889L10.9029 3.63486L10.9029 3.68096L10.9029 3.7272L10.9029 3.77358L10.9029 3.82011L10.9029 3.86678L10.9029 3.91358L10.9029 3.96053L10.9029 4.00761L10.9029 4.05483L10.9029 4.10218L10.9029 4.14967L10.9029 4.19728L10.9029 4.24504L10.9029 4.29292L10.9029 4.34093L10.9029 4.38907L10.9029 4.43734L10.9029 4.48573L10.9029 4.53424L10.9029 4.58289L10.9029 4.63165L10.9029 4.68054L10.9029 4.72954L10.9029 4.77867L10.9029 4.82791L10.9029 4.87727L10.9029 4.92675L10.9029 4.97634L10.9029 5.02604L10.9029 5.07587L10.9029 5.12579L10.9029 5.17584L10.9029 5.22599L10.9029 5.27625L10.9029 5.32661L10.9029 5.37708L10.9029 5.42765L10.9029 5.47834L10.9029 5.52913L10.9029 5.58001L10.9029 5.63099L10.9029 5.68208L10.9029 5.73326L10.9029 5.78454L10.9029 5.83592L10.9029 5.88739L10.9029 5.93896L10.9029 5.99061L10.9029 6.04236L10.9029 6.0942L10.9029 6.14614L10.9029 6.19816L10.9029 6.25026L10.9029 6.30245L10.9029 6.35473L10.9029 6.40709L10.9029 6.45954L10.9029 6.51206L10.9029 6.56466L10.9029 6.61735L10.9029 6.67012L10.9029 6.72296L10.9029 6.77587L10.9029 6.82886L10.9029 6.88193L10.9029 6.93507L10.9029 6.98828L10.9029 7.04156L10.9029 7.09491L10.9029 7.14833L10.9029 7.20182L10.9029 7.25537L10.9029 7.30899L10.9029 7.36267L10.9029 7.41641L10.9029 7.47022L10.9029 7.52409L10.9029 7.57801L10.9029 7.632L10.9029 7.68604L10.9029 7.74014L10.9029 7.79429L10.9029 7.8485L10.9029 7.90276L10.9029 7.95707L10.9029 8.01143L10.9029 8.06584L10.9029 8.12031L10.9029 8.17481L10.9029 8.22937L10.9029 8.28397L10.9029 8.33861L10.9029 8.3933L10.9029 8.44802L10.9029 8.50279L10.9029 8.5576L10.9029 8.61245L10.9029 8.66733L10.9029 8.72225L10.9029 8.7772L10.9029 8.83219L10.9029 8.88721L10.9029 8.94227L10.9029 8.99735L10.9029 9.05246L10.9029 9.10761L10.9029 9.16278L10.9029 9.21797L10.9029 9.2732L10.9029 9.32844L10.9029 9.38371L10.9029 9.439L10.9029 9.49431L10.9029 9.54964L10.9029 9.60499L10.9029 9.66035L10.9029 9.71573L10.9029 9.77113L10.9029 9.82654L10.9029 9.88197L10.9029 9.93741L10.9029 9.99285L10.9029 10.0483L10.9029 10.1038L10.9029 10.1592L10.9029 10.2147L10.9029 10.2702L10.9029 10.3257L10.9029 10.3812L10.9029 10.4367L10.9029 10.4922L10.9029 10.5477L10.9029 10.6032L10.9029 10.6586L10.9029 10.7141L10.9029 10.7696L10.9029 10.8251L10.9029 10.8806L10.9029 10.936L10.9029 10.9915L10.9029 11.0469L10.9029 11.1023L10.9029 11.1577L10.9029 11.2132L10.9029 11.2685L10.9029 11.3239L10.9029 11.3793L10.9029 11.4346L10.9029 11.4899L10.9029 11.5452L10.9029 11.6005L10.9029 11.6557L10.9029 11.711L10.9029 11.7662L10.9029 11.8214L10.9029 11.8765L10.9029 11.9316L10.9029 11.9867L10.9029 12.0418L10.9029 12.0968L10.9029 12.1518L10.9029 12.2068L10.9029 12.2617L10.9029 12.3166L10.9029 12.3715L10.9029 12.4263L10.9029 12.4811L10.9029 12.5358L10.9029 12.5905L10.9029 12.6452L10.9029 12.6998L10.9029 12.7543L10.9029 12.8089L10.9029 12.8633L10.9029 12.9178L10.9029 12.9721L10.9029 13.0265L10.9029 13.0808L10.9029 13.135L10.9029 13.1892L10.9029 13.2433L10.9029 13.2973L10.9029 13.3513L10.9029 13.4053L10.9029 13.4592L10.9029 13.513L10.9029 13.5668L10.9029 13.6205L10.9029 13.6741L10.9029 13.7277L10.9029 13.7812L10.9029 13.8346L10.9029 13.888L10.9029 13.9413L10.9029 13.9945L10.9029 14.0477L10.9029 14.1008L10.9029 14.1538L10.9029 14.2067L10.9029 14.2596L10.9029 14.3124L10.9029 14.3651L10.9029 14.4177L10.9029 14.4703L10.9029 14.5227L10.9029 14.5751L10.9029 14.6274L10.9029 14.6797L10.9029 14.7318L10.9029 14.7838L10.9029 14.8358L10.9029 14.8877L10.9029 14.9394L10.9029 14.9911L10.9029 15.0427L10.9029 15.0942L10.9029 15.1456L10.9029 15.1969L10.9029 15.2482L10.9029 15.2993L10.9029 15.3503L10.9029 15.4012L10.9029 15.452L10.9029 15.5027L10.9029 15.5534L10.9029 15.6039L10.9029 15.6543L10.9029 15.7046L10.9029 15.7547L10.9029 15.8048L10.9029 15.8548L10.9029 15.9046L10.9029 15.9544L10.9029 16.004L10.9029 16.0535L10.9029 16.1029L10.9029 16.1522L10.9029 16.2014L10.9029 16.2504L10.9029 16.2993L10.9029 16.3481L10.9029 16.3968L10.9029 16.4454L10.9029 16.4938L10.9029 16.5421L10.9029 16.5903L10.9029 16.6383L10.9029 16.6863L10.9029 16.7341L10.9029 16.7817L10.9029 16.8293L10.9029 16.8766L10.9029 16.9239L10.9029 16.971L10.9029 17.018L10.9029 17.0649L10.9029 17.1116L10.9029 17.1582L10.9029 17.2046L10.9029 17.2509L10.9029 17.297L10.9029 17.343L10.9029 17.3889L10.9029 17.4346L10.9029 17.4801L10.9029 17.5256L10.9029 17.5708L10.9029 17.6159L10.9029 17.6609L10.9029 17.7057L10.9029 17.7503L10.9029 17.7948L10.9029 17.8392L10.9029 17.8833L10.9029 17.9274L10.9029 17.9712L10.9029 18.0149L10.9029 18.0585L10.9029 9.2732L10.9029 18.145L10.9029 18.1881L10.9029 18.231L10.9029 18.2737L10.9029 18.3162L10.9029 18.3586L10.9029 18.4008L10.9029 18.4428L10.9029 18.4847L10.9029 18.5263L10.9029 18.5678L10.9029 18.6092L10.9029 18.6503L10.9029 18.6913L10.9029 18.7321L10.9029 18.7727L10.9029 18.8131L10.9029 18.8533L10.9029 18.8934L10.9029 18.9333L10.9029 18.973L10.9029 19.0125L10.9029 19.0518L10.9029 19.0909L10.9029 19.1298L10.9029 19.1685L10.9029 19.2071L10.9029 19.2454L10.9029 19.2836L10.9029 19.3215L10.9029 19.3593L10.9029 19.3969L10.9029 19.4342L10.9029 19.4714L10.9029 19.5083L10.9029 19.5451L10.9029 19.5816L10.9029 19.618L10.9029 19.6541L10.9029 19.69L10.9029 19.7257L10.9029 19.7613L10.9029 19.7965L10.9029 19.8316L10.9029 19.8665L10.9029 19.9012L10.9029 19.9356L10.9029 19.9698L10.9029 20.0038L10.9029 20.0376L10.9029 20.0712L10.9029 20.1045L10.9029 20.1377L10.9029 20.1706L10.9029 20.2032L10.9029 20.2357L10.9029 20.2679L10.9029 20.2999L10.9029 20.3317L10.9029 20.3632L10.9029 20.3945L10.9029 20.4256L10.9029 20.4565L10.9029 20.4871L10.9029 20.5174L10.9029 20.5476L10.9029 20.5775L10.9029 20.6071L10.9029 20.6365L10.9029 20.6657L10.9029 20.6947L10.9029 20.7233L10.9029 20.7518L10.9029 20.78L10.9029 20.808L10.9029 20.8357L10.9029 20.8631L10.9029 20.8903L10.9029 20.9173L10.9029 20.944L10.9029 20.9705L10.9029 20.9967L10.9029 21.0226L10.9029 21.0483L10.9029 21.0737L10.9029 21.0989L10.9029 21.1238L10.9029 21.1484L10.9029 21.1728L10.9029 21.197L10.9029 21.2208L10.9029 21.2444L10.9029 21.2677L10.9029 21.2908L10.9029 21.3136L10.9029 21.3361L10.9029 21.3584L10.9029 21.3803L10.9029 21.402L10.9029 21.4235L10.9029 21.4446L10.9029 21.4655L10.9029 21.4861L10.9029 21.5064L10.9029 21.5265L10.9029 21.5462L10.9029 21.5657L10.9029 21.5849L10.9029 21.6038L10.9029 21.6225L10.9029 21.6408L10.9029 21.6588L10.9029 21.6766L10.9029 21.6941L10.9029 21.7113L10.9029 21.7282L10.9029 21.7448L10.9029 21.7611L10.9029 21.7771L10.9029 21.7928L10.9029 21.8082L10.9029 21.8233L10.9029 21.8381L10.9029 21.8526L10.9029 21.8669L10.9029 21.8808L10.9029 21.8944L10.9029 21.9077L10.9029 21.9207L10.9029 21.9333L10.9029 21.9457L10.9029 21.9578L10.9029 21.9695L10.9029 21.981L10.9029 21.9921L10.9029 22.0029L10.9029 22.0134L10.9029 22.0236L10.9029 22.0335L10.9029 22.043L10.9029 22.0523L10.9029 22.0612L10.9029 22.0698L10.9029 22.0732C5.4784 22.0181 1.0971 17.3449 1.0971 11.5883Z"/>
</mask>
<path fill-rule="evenodd" clip-rule="evenodd" d="M10.9029 13.6741C10.9029 16.0535 10.9352 22.1764 10.9029 22.176C5.42478 22.1209 1.00001 17.4017 1.00001 11.5883C1.00001 5.77486 5.42478 1.0557 10.9029 1.00053C10.9352 1.0002 10.9676 1.00004 11 1.00004L11 1.10284L10.9029 11.711C10.9029 7.632 10.9029 3.42547 10.9029 9.2732C10.9029 15.1209 10.9029 8.22937 10.9029 13.6741ZM1.0971 11.5883C1.09709 5.83164 5.4784 1.1585 10.9029 1.10333L10.9029 1.10381L10.9029 1.13882L10.9029 1.17405L10.9029 1.20949L10.9029 1.24514L10.9029 1.281L10.9029 1.31707L10.9029 1.35335L10.9029 1.38983L10.9029 1.42651L10.9029 1.4634L10.9029 1.5005L10.9029 1.53779L10.9029 1.57528L10.9029 1.61298L10.9029 1.65087L10.9029 1.68896L10.9029 1.72724L10.9029 1.76572L10.9029 1.8044L10.9029 1.84326L10.9029 1.88232L10.9029 1.92157L10.9029 1.961L10.9029 2.00063L10.9029 2.04044L10.9029 2.08044L10.9029 2.12062L10.9029 2.16099L10.9029 2.20153L10.9029 2.24227L10.9029 2.28318L10.9029 2.32427L10.9029 2.36554L10.9029 2.40699L10.9029 2.44861L10.9029 2.49041L10.9029 2.53238L10.9029 2.57452L10.9029 2.61683L10.9029 2.65932L10.9029 2.70197L10.9029 2.74479L10.9029 2.78778L10.9029 2.83094L10.9029 2.87426L10.9029 2.91774L10.9029 2.96139L10.9029 3.0052L10.9029 3.04916L10.9029 3.0933L10.9029 3.13758L10.9029 3.18202L10.9029 3.22662L10.9029 3.27138L10.9029 3.31629L10.9029 3.36135L10.9029 3.40656L10.9029 3.45192L10.9029 3.49743L10.9029 3.5431L10.9029 3.5889L10.9029 3.63486L10.9029 3.68096L10.9029 3.7272L10.9029 3.77358L10.9029 3.82011L10.9029 3.86678L10.9029 3.91358L10.9029 3.96053L10.9029 4.00761L10.9029 4.05483L10.9029 4.10218L10.9029 4.14967L10.9029 4.19728L10.9029 4.24504L10.9029 4.29292L10.9029 4.34093L10.9029 4.38907L10.9029 4.43734L10.9029 4.48573L10.9029 4.53424L10.9029 4.58289L10.9029 4.63165L10.9029 4.68054L10.9029 4.72954L10.9029 4.77867L10.9029 4.82791L10.9029 4.87727L10.9029 4.92675L10.9029 4.97634L10.9029 5.02604L10.9029 5.07587L10.9029 5.12579L10.9029 5.17584L10.9029 5.22599L10.9029 5.27625L10.9029 5.32661L10.9029 5.37708L10.9029 5.42765L10.9029 5.47834L10.9029 5.52913L10.9029 5.58001L10.9029 5.63099L10.9029 5.68208L10.9029 5.73326L10.9029 5.78454L10.9029 5.83592L10.9029 5.88739L10.9029 5.93896L10.9029 5.99061L10.9029 6.04236L10.9029 6.0942L10.9029 6.14614L10.9029 6.19816L10.9029 6.25026L10.9029 6.30245L10.9029 6.35473L10.9029 6.40709L10.9029 6.45954L10.9029 6.51206L10.9029 6.56466L10.9029 6.61735L10.9029 6.67012L10.9029 6.72296L10.9029 6.77587L10.9029 6.82886L10.9029 6.88193L10.9029 6.93507L10.9029 6.98828L10.9029 7.04156L10.9029 7.09491L10.9029 7.14833L10.9029 7.20182L10.9029 7.25537L10.9029 7.30899L10.9029 7.36267L10.9029 7.41641L10.9029 7.47022L10.9029 7.52409L10.9029 7.57801L10.9029 7.632L10.9029 7.68604L10.9029 7.74014L10.9029 7.79429L10.9029 7.8485L10.9029 7.90276L10.9029 7.95707L10.9029 8.01143L10.9029 8.06584L10.9029 8.12031L10.9029 8.17481L10.9029 8.22937L10.9029 8.28397L10.9029 8.33861L10.9029 8.3933L10.9029 8.44802L10.9029 8.50279L10.9029 8.5576L10.9029 8.61245L10.9029 8.66733L10.9029 8.72225L10.9029 8.7772L10.9029 8.83219L10.9029 8.88721L10.9029 8.94227L10.9029 8.99735L10.9029 9.05246L10.9029 9.10761L10.9029 9.16278L10.9029 9.21797L10.9029 9.2732L10.9029 9.32844L10.9029 9.38371L10.9029 9.439L10.9029 9.49431L10.9029 9.54964L10.9029 9.60499L10.9029 9.66035L10.9029 9.71573L10.9029 9.77113L10.9029 9.82654L10.9029 9.88197L10.9029 9.93741L10.9029 9.99285L10.9029 10.0483L10.9029 10.1038L10.9029 10.1592L10.9029 10.2147L10.9029 10.2702L10.9029 10.3257L10.9029 10.3812L10.9029 10.4367L10.9029 10.4922L10.9029 10.5477L10.9029 10.6032L10.9029 10.6586L10.9029 10.7141L10.9029 10.7696L10.9029 10.8251L10.9029 10.8806L10.9029 10.936L10.9029 10.9915L10.9029 11.0469L10.9029 11.1023L10.9029 11.1577L10.9029 11.2132L10.9029 11.2685L10.9029 11.3239L10.9029 11.3793L10.9029 11.4346L10.9029 11.4899L10.9029 11.5452L10.9029 11.6005L10.9029 11.6557L10.9029 11.711L10.9029 11.7662L10.9029 11.8214L10.9029 11.8765L10.9029 11.9316L10.9029 11.9867L10.9029 12.0418L10.9029 12.0968L10.9029 12.1518L10.9029 12.2068L10.9029 12.2617L10.9029 12.3166L10.9029 12.3715L10.9029 12.4263L10.9029 12.4811L10.9029 12.5358L10.9029 12.5905L10.9029 12.6452L10.9029 12.6998L10.9029 12.7543L10.9029 12.8089L10.9029 12.8633L10.9029 12.9178L10.9029 12.9721L10.9029 13.0265L10.9029 13.0808L10.9029 13.135L10.9029 13.1892L10.9029 13.2433L10.9029 13.2973L10.9029 13.3513L10.9029 13.4053L10.9029 13.4592L10.9029 13.513L10.9029 13.5668L10.9029 13.6205L10.9029 13.6741L10.9029 13.7277L10.9029 13.7812L10.9029 13.8346L10.9029 13.888L10.9029 13.9413L10.9029 13.9945L10.9029 14.0477L10.9029 14.1008L10.9029 14.1538L10.9029 14.2067L10.9029 14.2596L10.9029 14.3124L10.9029 14.3651L10.9029 14.4177L10.9029 14.4703L10.9029 14.5227L10.9029 14.5751L10.9029 14.6274L10.9029 14.6797L10.9029 14.7318L10.9029 14.7838L10.9029 14.8358L10.9029 14.8877L10.9029 14.9394L10.9029 14.9911L10.9029 15.0427L10.9029 15.0942L10.9029 15.1456L10.9029 15.1969L10.9029 15.2482L10.9029 15.2993L10.9029 15.3503L10.9029 15.4012L10.9029 15.452L10.9029 15.5027L10.9029 15.5534L10.9029 15.6039L10.9029 15.6543L10.9029 15.7046L10.9029 15.7547L10.9029 15.8048L10.9029 15.8548L10.9029 15.9046L10.9029 15.9544L10.9029 16.004L10.9029 16.0535L10.9029 16.1029L10.9029 16.1522L10.9029 16.2014L10.9029 16.2504L10.9029 16.2993L10.9029 16.3481L10.9029 16.3968L10.9029 16.4454L10.9029 16.4938L10.9029 16.5421L10.9029 16.5903L10.9029 16.6383L10.9029 16.6863L10.9029 16.7341L10.9029 16.7817L10.9029 16.8293L10.9029 16.8766L10.9029 16.9239L10.9029 16.971L10.9029 17.018L10.9029 17.0649L10.9029 17.1116L10.9029 17.1582L10.9029 17.2046L10.9029 17.2509L10.9029 17.297L10.9029 17.343L10.9029 17.3889L10.9029 17.4346L10.9029 17.4801L10.9029 17.5256L10.9029 17.5708L10.9029 17.6159L10.9029 17.6609L10.9029 17.7057L10.9029 17.7503L10.9029 17.7948L10.9029 17.8392L10.9029 17.8833L10.9029 17.9274L10.9029 17.9712L10.9029 18.0149L10.9029 18.0585L10.9029 9.2732L10.9029 18.145L10.9029 18.1881L10.9029 18.231L10.9029 18.2737L10.9029 18.3162L10.9029 18.3586L10.9029 18.4008L10.9029 18.4428L10.9029 18.4847L10.9029 18.5263L10.9029 18.5678L10.9029 18.6092L10.9029 18.6503L10.9029 18.6913L10.9029 18.7321L10.9029 18.7727L10.9029 18.8131L10.9029 18.8533L10.9029 18.8934L10.9029 18.9333L10.9029 18.973L10.9029 19.0125L10.9029 19.0518L10.9029 19.0909L10.9029 19.1298L10.9029 19.1685L10.9029 19.2071L10.9029 19.2454L10.9029 19.2836L10.9029 19.3215L10.9029 19.3593L10.9029 19.3969L10.9029 19.4342L10.9029 19.4714L10.9029 19.5083L10.9029 19.5451L10.9029 19.5816L10.9029 19.618L10.9029 19.6541L10.9029 19.69L10.9029 19.7257L10.9029 19.7613L10.9029 19.7965L10.9029 19.8316L10.9029 19.8665L10.9029 19.9012L10.9029 19.9356L10.9029 19.9698L10.9029 20.0038L10.9029 20.0376L10.9029 20.0712L10.9029 20.1045L10.9029 20.1377L10.9029 20.1706L10.9029 20.2032L10.9029 20.2357L10.9029 20.2679L10.9029 20.2999L10.9029 20.3317L10.9029 20.3632L10.9029 20.3945L10.9029 20.4256L10.9029 20.4565L10.9029 20.4871L10.9029 20.5174L10.9029 20.5476L10.9029 20.5775L10.9029 20.6071L10.9029 20.6365L10.9029 20.6657L10.9029 20.6947L10.9029 20.7233L10.9029 20.7518L10.9029 20.78L10.9029 20.808L10.9029 20.8357L10.9029 20.8631L10.9029 20.8903L10.9029 20.9173L10.9029 20.944L10.9029 20.9705L10.9029 20.9967L10.9029 21.0226L10.9029 21.0483L10.9029 21.0737L10.9029 21.0989L10.9029 21.1238L10.9029 21.1484L10.9029 21.1728L10.9029 21.197L10.9029 21.2208L10.9029 21.2444L10.9029 21.2677L10.9029 21.2908L10.9029 21.3136L10.9029 21.3361L10.9029 21.3584L10.9029 21.3803L10.9029 21.402L10.9029 21.4235L10.9029 21.4446L10.9029 21.4655L10.9029 21.4861L10.9029 21.5064L10.9029 21.5265L10.9029 21.5462L10.9029 21.5657L10.9029 21.5849L10.9029 21.6038L10.9029 21.6225L10.9029 21.6408L10.9029 21.6588L10.9029 21.6766L10.9029 21.6941L10.9029 21.7113L10.9029 21.7282L10.9029 21.7448L10.9029 21.7611L10.9029 21.7771L10.9029 21.7928L10.9029 21.8082L10.9029 21.8233L10.9029 21.8381L10.9029 21.8526L10.9029 21.8669L10.9029 21.8808L10.9029 21.8944L10.9029 21.9077L10.9029 21.9207L10.9029 21.9333L10.9029 21.9457L10.9029 21.9578L10.9029 21.9695L10.9029 21.981L10.9029 21.9921L10.9029 22.0029L10.9029 22.0134L10.9029 22.0236L10.9029 22.0335L10.9029 22.043L10.9029 22.0523L10.9029 22.0612L10.9029 22.0698L10.9029 22.0732C5.4784 22.0181 1.0971 17.3449 1.0971 11.5883Z" fill="#3C507B"/>
<path d="M10.9029 13.6741L11.5997 13.6741L11.5997 13.6741L10.9029 13.6741ZM10.9029 22.176L10.8959 22.8728L10.8959 22.8728L10.9029 22.176ZM10.9029 1.00053L10.9099 1.69729L10.9099 1.6973L10.9029 1.00053ZM11 1.00004L11 0.303242L11.6968 0.303242L11.6968 1.00004L11 1.00004ZM11 1.10284L11.6968 1.10284L11.6968 1.10921L11 1.10284ZM10.9029 9.2732L11.5997 9.2732L10.9029 9.2732ZM10.9029 1.10333L10.8958 0.40657L11.5997 0.399412L11.5997 1.10333L10.9029 1.10333ZM10.9029 9.21797L10.2061 9.21798L10.2061 9.21797L10.9029 9.21797ZM10.9029 9.32844L10.2061 9.32844L10.2061 9.32843L10.9029 9.32844ZM10.9029 13.6205L10.2061 13.6206L10.2061 13.6205L10.9029 13.6205ZM10.9029 13.7277L10.2061 13.7277L10.2061 13.7275L10.9029 13.7277ZM10.9029 18.145L10.2061 18.145L10.9029 18.145ZM10.9029 22.0732L11.5997 22.0732L11.5997 22.7771L10.8958 22.77L10.9029 22.0732ZM10.9099 21.4793C10.5406 21.4755 10.3562 21.7406 10.3249 21.7871C10.2728 21.8647 10.2493 21.9344 10.2421 21.9562C10.2244 22.0096 10.2177 22.0528 10.2164 22.061C10.2139 22.0767 10.2126 22.0887 10.212 22.0938C10.2114 22.0997 10.2111 22.1039 10.211 22.1055C10.2107 22.109 10.2111 22.1037 10.2118 22.0831C10.2131 22.0453 10.2144 21.9844 10.2155 21.8994C10.2176 21.7312 10.219 21.4857 10.2198 21.1806C10.2213 20.5712 10.2203 19.733 10.2182 18.819C10.2142 16.9931 10.2061 14.8647 10.2061 13.6741L11.5997 13.6741C11.5997 14.8629 11.6078 16.9856 11.6118 18.8159C11.6139 19.73 11.6149 20.5711 11.6133 21.1841C11.6126 21.4901 11.6112 21.7415 11.6089 21.9173C11.6078 22.0044 11.6064 22.0773 11.6046 22.1303C11.6038 22.1552 11.6026 22.1845 11.6005 22.2113C11.5998 22.2216 11.5976 22.2496 11.5923 22.2822C11.5906 22.2933 11.5834 22.3387 11.5652 22.3936C11.5578 22.4162 11.534 22.4864 11.4817 22.5644C11.4501 22.6113 11.2655 22.8765 10.8959 22.8728L10.9099 21.4793ZM1.69681 11.5883C1.69681 17.0567 5.84995 21.4283 10.9099 21.4793L10.8959 22.8728C4.99961 22.8134 0.303205 17.7467 0.303205 11.5883L1.69681 11.5883ZM10.9099 1.6973C5.84995 1.74826 1.69681 6.11984 1.69681 11.5883L0.303205 11.5883C0.303205 5.42988 4.99961 0.363146 10.8959 0.303764L10.9099 1.6973ZM11 1.69684C10.9699 1.69684 10.9399 1.69699 10.9099 1.69729L10.8959 0.303764C10.9306 0.303413 10.9653 0.303242 11 0.303242L11 1.69684ZM10.3032 1.10284L10.3032 1.00004L11.6968 1.00004L11.6968 1.10284L10.3032 1.10284ZM10.2061 11.7046L10.3032 1.09646L11.6968 1.10921L11.5997 11.7173L10.2061 11.7046ZM10.2061 9.2732C10.2061 7.81127 10.2061 6.97773 10.2061 6.61349C10.2061 6.52242 10.2061 6.4607 10.2061 6.42581C10.2061 6.40837 10.2061 6.39764 10.2061 6.39331C10.2061 6.39223 10.2061 6.39155 10.2061 6.39126C10.2061 6.39119 10.2061 6.39115 10.2061 6.39113C10.9028 7.0879 11.5997 6.39118 11.5997 6.39114C11.5997 6.39118 11.5997 6.39133 11.5997 6.39158C11.5997 6.39258 11.5997 6.39513 11.5997 6.39921C11.5997 6.43186 11.5997 6.56194 11.5997 6.76957C11.5997 7.60011 11.5997 9.67148 11.5997 11.711L10.2061 11.711C10.2061 9.67148 10.2061 7.60011 10.2061 6.76957C10.2061 6.56194 10.2061 6.43186 10.2061 6.39921C10.2061 6.39513 10.2061 6.39257 10.2061 6.39157C10.2061 6.39133 10.2061 6.39117 10.2061 6.39111C10.2061 6.39101 10.903 5.69429 11.5997 6.3911C11.5997 6.39113 11.5997 6.39118 11.5997 6.39125C11.5997 6.39154 11.5997 6.39223 11.5997 6.39331C11.5997 6.39764 11.5997 6.40837 11.5997 6.42581C11.5997 6.4607 11.5997 6.52242 11.5997 6.61349C11.5997 6.97773 11.5997 7.81127 11.5997 9.2732L10.2061 9.2732ZM10.2061 13.6741C10.2061 12.3129 10.2061 11.7227 10.2061 11.5118C10.2061 11.4591 10.2061 11.43 10.2061 11.4186C10.2061 11.4157 10.2061 11.414 10.2061 11.4132C10.2061 11.4131 10.2061 11.4131 10.2061 11.413C10.2061 11.413 10.2061 11.4129 10.2061 11.4129C10.2061 11.413 10.2061 11.4137 10.2061 11.4144C10.9036 12.1095 11.5997 11.413 11.5997 11.413C11.5997 11.4129 11.5997 11.413 11.5997 11.4132C11.5997 11.4133 11.5997 11.4135 11.5997 11.4138C11.5997 11.4161 11.5997 11.422 11.5997 11.4308C11.5997 11.466 11.5997 11.5469 11.5997 11.6248C11.5997 11.7026 11.5997 11.7773 11.5997 11.7998C11.5997 11.8027 11.5997 11.8047 11.5997 11.8058C11.5997 11.8063 11.5997 11.8067 11.5997 11.8068C11.5997 11.8069 10.9029 12.5035 10.2061 11.8068C10.2061 11.8068 10.2061 11.8067 10.2061 11.8067C10.2061 11.8066 10.2061 11.8064 10.2061 11.8062C10.2061 11.8046 10.2061 11.7989 10.2061 11.7885C10.2061 11.7676 10.2061 11.7275 10.2061 11.6622C10.2061 11.4009 10.2061 10.7351 10.2061 9.2732L11.5997 9.2732C11.5997 10.7351 11.5997 11.4009 11.5997 11.6622C11.5997 11.7275 11.5997 11.7676 11.5997 11.7885C11.5997 11.7989 11.5997 11.8046 11.5997 11.8062C11.5997 11.8064 11.5997 11.8066 11.5997 11.8066C11.5997 11.8067 11.5997 11.8066 11.5997 11.8066C10.903 11.1099 10.2061 11.8066 10.2061 11.8067C10.2061 11.8066 10.2061 11.8066 10.2061 11.8066C10.2061 11.8065 10.2061 11.8065 10.2061 11.8064C10.2061 11.8062 10.2061 11.806 10.2061 11.8058C10.2061 11.8047 10.2061 11.8027 10.2061 11.7998C10.2061 11.7773 10.2061 11.7026 10.2061 11.6248C10.2061 11.5469 10.2061 11.4659 10.2061 11.4308C10.2061 11.422 10.2061 11.4161 10.2061 11.4138C10.2061 11.4132 10.2061 11.4128 10.2061 11.4126C10.2061 11.4124 10.9023 10.7159 11.5997 11.411C11.5997 11.4117 11.5997 11.4125 11.5997 11.4126C11.5997 11.4128 11.5997 11.4129 11.5997 11.4131C11.5997 11.4139 11.5997 11.4157 11.5997 11.4185C11.5997 11.43 11.5997 11.4591 11.5997 11.5118C11.5997 11.7227 11.5997 12.3129 11.5997 13.6741L10.2061 13.6741ZM10.91 1.8001C5.9036 1.85101 1.7939 6.1766 1.7939 11.5883L0.400294 11.5883C0.400294 5.48667 5.0532 0.465987 10.8958 0.40657L10.91 1.8001ZM10.2061 1.10381L10.2061 1.10333L11.5997 1.10333L11.5997 1.10381L10.2061 1.10381ZM10.2061 1.13882L10.2061 1.10381L11.5997 1.10381L11.5997 1.13882L10.2061 1.13882ZM10.2061 1.17405L10.2061 1.13882L11.5997 1.13882L11.5997 1.17405L10.2061 1.17405ZM10.2061 1.20949L10.2061 1.17405L11.5997 1.17405L11.5997 1.20949L10.2061 1.20949ZM10.2061 1.24514L10.2061 1.20949L11.5997 1.20949L11.5997 1.24514L10.2061 1.24514ZM10.2061 1.281L10.2061 1.24514L11.5997 1.24514L11.5997 1.281L10.2061 1.281ZM10.2061 1.31707L10.2061 1.281L11.5997 1.281L11.5997 1.31707L10.2061 1.31707ZM10.2061 1.35335L10.2061 1.31707L11.5997 1.31707L11.5997 1.35335L10.2061 1.35335ZM10.2061 1.38983L10.2061 1.35335L11.5997 1.35335L11.5997 1.38983L10.2061 1.38983ZM10.2061 1.42651L10.2061 1.38983L11.5997 1.38983L11.5997 1.42651L10.2061 1.42651ZM10.2061 1.4634L10.2061 1.42651L11.5997 1.42651L11.5997 1.4634L10.2061 1.4634ZM10.2061 1.5005L10.2061 1.4634L11.5997 1.4634L11.5997 1.5005L10.2061 1.5005ZM10.2061 1.53779L10.2061 1.5005L11.5997 1.5005L11.5997 1.53779L10.2061 1.53779ZM10.2061 1.57528L10.2061 1.53779L11.5997 1.53779L11.5997 1.57528L10.2061 1.57528ZM10.2061 1.61298L10.2061 1.57528L11.5997 1.57528L11.5997 1.61298L10.2061 1.61298ZM10.2061 1.65087L10.2061 1.61298L11.5997 1.61298L11.5997 1.65087L10.2061 1.65087ZM10.2061 1.68896L10.2061 1.65087L11.5997 1.65087L11.5997 1.68896L10.2061 1.68896ZM10.2061 1.72724L10.2061 1.68896L11.5997 1.68896L11.5997 1.72724L10.2061 1.72724ZM10.2061 1.76572L10.2061 1.72724L11.5997 1.72724L11.5997 1.76572L10.2061 1.76572ZM10.2061 1.8044L10.2061 1.76572L11.5997 1.76572L11.5997 1.8044L10.2061 1.8044ZM10.2061 1.84326L10.2061 1.8044L11.5997 1.8044L11.5997 1.84326L10.2061 1.84326ZM10.2061 1.88232L10.2061 1.84326L11.5997 1.84326L11.5997 1.88232L10.2061 1.88232ZM10.2061 1.92157L10.2061 1.88232L11.5997 1.88232L11.5997 1.92157L10.2061 1.92157ZM10.2061 1.961L10.2061 1.92157L11.5997 1.92157L11.5997 1.961L10.2061 1.961ZM10.2061 2.00063L10.2061 1.961L11.5997 1.961L11.5997 2.00063L10.2061 2.00063ZM10.2061 2.04044L10.2061 2.00063L11.5997 2.00063L11.5997 2.04044L10.2061 2.04044ZM10.2061 2.08044L10.2061 2.04044L11.5997 2.04044L11.5997 2.08044L10.2061 2.08044ZM10.2061 2.12062L10.2061 2.08044L11.5997 2.08044L11.5997 2.12062L10.2061 2.12062ZM10.2061 2.16099L10.2061 2.12062L11.5997 2.12062L11.5997 2.16099L10.2061 2.16099ZM10.2061 2.20153L10.2061 2.16099L11.5997 2.16099L11.5997 2.20153L10.2061 2.20153ZM10.2061 2.24227L10.2061 2.20153L11.5997 2.20153L11.5997 2.24227L10.2061 2.24227ZM10.2061 2.28318L10.2061 2.24227L11.5997 2.24227L11.5997 2.28318L10.2061 2.28318ZM10.2061 2.32427L10.2061 2.28318L11.5997 2.28318L11.5997 2.32427L10.2061 2.32427ZM10.2061 2.36554L10.2061 2.32427L11.5997 2.32427L11.5997 2.36554L10.2061 2.36554ZM10.2061 2.40699L10.2061 2.36554L11.5997 2.36554L11.5997 2.40699L10.2061 2.40699ZM10.2061 2.44861L10.2061 2.40699L11.5997 2.40699L11.5997 2.44861L10.2061 2.44861ZM10.2061 2.49041L10.2061 2.44861L11.5997 2.44861L11.5997 2.49041L10.2061 2.49041ZM10.2061 2.53238L10.2061 2.49041L11.5997 2.49041L11.5997 2.53238L10.2061 2.53238ZM10.2061 2.57452L10.2061 2.53238L11.5997 2.53238L11.5997 2.57452L10.2061 2.57452ZM10.2061 2.61683L10.2061 2.57452L11.5997 2.57452L11.5997 2.61683L10.2061 2.61683ZM10.2061 2.65932L10.2061 2.61683L11.5997 2.61683L11.5997 2.65932L10.2061 2.65932ZM10.2061 2.70197L10.2061 2.65932L11.5997 2.65932L11.5997 2.70197L10.2061 2.70197ZM10.2061 2.74479L10.2061 2.70197L11.5997 2.70197L11.5997 2.74479L10.2061 2.74479ZM10.2061 2.78778L10.2061 2.74479L11.5997 2.74479L11.5997 2.78778L10.2061 2.78778ZM10.2061 2.83094L10.2061 2.78778L11.5997 2.78778L11.5997 2.83094L10.2061 2.83094ZM10.2061 2.87426L10.2061 2.83094L11.5997 2.83094L11.5997 2.87426L10.2061 2.87426ZM10.2061 2.91774L10.2061 2.87426L11.5997 2.87426L11.5997 2.91774L10.2061 2.91774ZM10.2061 2.96139L10.2061 2.91774L11.5997 2.91774L11.5997 2.96139L10.2061 2.96139ZM10.2061 3.0052L10.2061 2.96139L11.5997 2.96139L11.5997 3.0052L10.2061 3.0052ZM10.2061 3.04916L10.2061 3.0052L11.5997 3.0052L11.5997 3.04916L10.2061 3.04916ZM10.2061 3.0933L10.2061 3.04916L11.5997 3.04916L11.5997 3.0933L10.2061 3.0933ZM10.2061 3.13758L10.2061 3.0933L11.5997 3.0933L11.5997 3.13758L10.2061 3.13758ZM10.2061 3.18202L10.2061 3.13758L11.5997 3.13758L11.5997 3.18202L10.2061 3.18202ZM10.2061 3.22662L10.2061 3.18202L11.5997 3.18202L11.5997 3.22662L10.2061 3.22662ZM10.2061 3.27138L10.2061 3.22662L11.5997 3.22662L11.5997 3.27138L10.2061 3.27138ZM10.2061 3.31629L10.2061 3.27138L11.5997 3.27138L11.5997 3.31629L10.2061 3.31629ZM10.2061 3.36135L10.2061 3.31629L11.5997 3.31629L11.5997 3.36135L10.2061 3.36135ZM10.2061 3.40656L10.2061 3.36135L11.5997 3.36135L11.5997 3.40656L10.2061 3.40656ZM10.2061 3.45192L10.2061 3.40656L11.5997 3.40656L11.5997 3.45192L10.2061 3.45192ZM10.2061 3.49743L10.2061 3.45192L11.5997 3.45192L11.5997 3.49743L10.2061 3.49743ZM10.2061 3.5431L10.2061 3.49743L11.5997 3.49743L11.5997 3.5431L10.2061 3.5431ZM10.2061 3.5889L10.2061 3.5431L11.5997 3.5431L11.5997 3.5889L10.2061 3.5889ZM10.2061 3.63486L10.2061 3.5889L11.5997 3.5889L11.5997 3.63486L10.2061 3.63486ZM10.2061 3.68096L10.2061 3.63486L11.5997 3.63486L11.5997 3.68096L10.2061 3.68096ZM10.2061 3.7272L10.2061 3.68096L11.5997 3.68096L11.5997 3.7272L10.2061 3.7272ZM10.2061 3.77358L10.2061 3.7272L11.5997 3.7272L11.5997 3.77358L10.2061 3.77358ZM10.2061 3.82011L10.2061 3.77358L11.5997 3.77358L11.5997 3.82011L10.2061 3.82011ZM10.2061 3.86678L10.2061 3.82011L11.5997 3.82011L11.5997 3.86678L10.2061 3.86678ZM10.2061 3.91358L10.2061 3.86678L11.5997 3.86678L11.5997 3.91358L10.2061 3.91358ZM10.2061 3.96053L10.2061 3.91358L11.5997 3.91358L11.5997 3.96053L10.2061 3.96053ZM10.2061 4.00761L10.2061 3.96053L11.5997 3.96053L11.5997 4.00761L10.2061 4.00761ZM10.2061 4.05483L10.2061 4.00761L11.5997 4.00761L11.5997 4.05483L10.2061 4.05483ZM10.2061 4.10218L10.2061 4.05483L11.5997 4.05483L11.5997 4.10218L10.2061 4.10218ZM10.2061 4.14967L10.2061 4.10218L11.5997 4.10218L11.5997 4.14967L10.2061 4.14967ZM10.2061 4.19728L10.2061 4.14967L11.5997 4.14967L11.5997 4.19728L10.2061 4.19728ZM10.2061 4.24504L10.2061 4.19728L11.5997 4.19728L11.5997 4.24504L10.2061 4.24504ZM10.2061 4.29292L10.2061 4.24504L11.5997 4.24504L11.5997 4.29292L10.2061 4.29292ZM10.2061 4.34093L10.2061 4.29292L11.5997 4.29292L11.5997 4.34093L10.2061 4.34093ZM10.2061 4.38907L10.2061 4.34093L11.5997 4.34093L11.5997 4.38907L10.2061 4.38907ZM10.2061 4.43734L10.2061 4.38907L11.5997 4.38907L11.5997 4.43734L10.2061 4.43734ZM10.2061 4.48573L10.2061 4.43734L11.5997 4.43734L11.5997 4.48573L10.2061 4.48573ZM10.2061 4.53424L10.2061 4.48573L11.5997 4.48573L11.5997 4.53424L10.2061 4.53424ZM10.2061 4.58289L10.2061 4.53424L11.5997 4.53424L11.5997 4.58289L10.2061 4.58289ZM10.2061 4.63165L10.2061 4.58289L11.5997 4.58289L11.5997 4.63165L10.2061 4.63165ZM10.2061 4.68054L10.2061 4.63165L11.5997 4.63165L11.5997 4.68054L10.2061 4.68054ZM10.2061 4.72954L10.2061 4.68054L11.5997 4.68054L11.5997 4.72954L10.2061 4.72954ZM10.2061 4.77867L10.2061 4.72954L11.5997 4.72954L11.5997 4.77867L10.2061 4.77867ZM10.2061 4.82791L10.2061 4.77867L11.5997 4.77867L11.5997 4.82791L10.2061 4.82791ZM10.2061 4.87727L10.2061 4.82791L11.5997 4.82791L11.5997 4.87727L10.2061 4.87727ZM10.2061 4.92675L10.2061 4.87727L11.5997 4.87727L11.5997 4.92675L10.2061 4.92675ZM10.2061 4.97634L10.2061 4.92675L11.5997 4.92675L11.5997 4.97634L10.2061 4.97634ZM10.2061 5.02604L10.2061 4.97634L11.5997 4.97634L11.5997 5.02604L10.2061 5.02604ZM10.2061 5.07587L10.2061 5.02604L11.5997 5.02604L11.5997 5.07587L10.2061 5.07587ZM10.2061 5.12579L10.2061 5.07587L11.5997 5.07587L11.5997 5.12579L10.2061 5.12579ZM10.2061 5.17584L10.2061 5.12579L11.5997 5.12579L11.5997 5.17584L10.2061 5.17584ZM10.2061 5.22599L10.2061 5.17584L11.5997 5.17584L11.5997 5.22599L10.2061 5.22599ZM10.2061 5.27625L10.2061 5.22599L11.5997 5.22599L11.5997 5.27625L10.2061 5.27625ZM10.2061 5.32661L10.2061 5.27625L11.5997 5.27625L11.5997 5.32661L10.2061 5.32661ZM10.2061 5.37708L10.2061 5.32661L11.5997 5.32661L11.5997 5.37708L10.2061 5.37708ZM10.2061 5.42765L10.2061 5.37708L11.5997 5.37708L11.5997 5.42765L10.2061 5.42765ZM10.2061 5.47834L10.2061 5.42765L11.5997 5.42765L11.5997 5.47834L10.2061 5.47834ZM10.2061 5.52913L10.2061 5.47834L11.5997 5.47834L11.5997 5.52913L10.2061 5.52913ZM10.2061 5.58001L10.2061 5.52913L11.5997 5.52913L11.5997 5.58001L10.2061 5.58001ZM10.2061 5.63099L10.2061 5.58001L11.5997 5.58001L11.5997 5.63099L10.2061 5.63099ZM10.2061 5.68208L10.2061 5.63099L11.5997 5.63099L11.5997 5.68208L10.2061 5.68208ZM10.2061 5.73326L10.2061 5.68208L11.5997 5.68208L11.5997 5.73326L10.2061 5.73326ZM10.2061 5.78454L10.2061 5.73326L11.5997 5.73326L11.5997 5.78454L10.2061 5.78454ZM10.2061 5.83592L10.2061 5.78454L11.5997 5.78454L11.5997 5.83592L10.2061 5.83592ZM10.2061 5.88739L10.2061 5.83592L11.5997 5.83592L11.5997 5.88739L10.2061 5.88739ZM10.2061 5.93896L10.2061 5.88739L11.5997 5.88739L11.5997 5.93896L10.2061 5.93896ZM10.2061 5.99061L10.2061 5.93896L11.5997 5.93896L11.5997 5.99061L10.2061 5.99061ZM10.2061 6.04236L10.2061 5.99061L11.5997 5.99061L11.5997 6.04236L10.2061 6.04236ZM10.2061 6.0942L10.2061 6.04236L11.5997 6.04236L11.5997 6.0942L10.2061 6.0942ZM10.2061 6.14614L10.2061 6.0942L11.5997 6.0942L11.5997 6.14614L10.2061 6.14614ZM10.2061 6.19816L10.2061 6.14614L11.5997 6.14614L11.5997 6.19816L10.2061 6.19816ZM10.2061 6.25026L10.2061 6.19816L11.5997 6.19816L11.5997 6.25026L10.2061 6.25026ZM10.2061 6.30245L10.2061 6.25026L11.5997 6.25026L11.5997 6.30245L10.2061 6.30245ZM10.2061 6.35473L10.2061 6.30245L11.5997 6.30245L11.5997 6.35473L10.2061 6.35473ZM10.2061 6.40709L10.2061 6.35473L11.5997 6.35473L11.5997 6.40709L10.2061 6.40709ZM10.2061 6.45954L10.2061 6.40709L11.5997 6.40709L11.5997 6.45954L10.2061 6.45954ZM10.2061 6.51206L10.2061 6.45954L11.5997 6.45954L11.5997 6.51206L10.2061 6.51206ZM10.2061 6.56466L10.2061 6.51206L11.5997 6.51206L11.5997 6.56466L10.2061 6.56466ZM10.2061 6.61735L10.2061 6.56466L11.5997 6.56466L11.5997 6.61735L10.2061 6.61735ZM10.2061 6.67012L10.2061 6.61735L11.5997 6.61735L11.5997 6.67012L10.2061 6.67012ZM10.2061 6.72296L10.2061 6.67012L11.5997 6.67012L11.5997 6.72296L10.2061 6.72296ZM10.2061 6.77587L10.2061 6.72296L11.5997 6.72296L11.5997 6.77587L10.2061 6.77587ZM10.2061 6.82886L10.2061 6.77587L11.5997 6.77587L11.5997 6.82886L10.2061 6.82886ZM10.2061 6.88193L10.2061 6.82886L11.5997 6.82886L11.5997 6.88193L10.2061 6.88193ZM10.2061 6.93507L10.2061 6.88193L11.5997 6.88193L11.5997 6.93507L10.2061 6.93507ZM10.2061 6.98828L10.2061 6.93507L11.5997 6.93507L11.5997 6.98828L10.2061 6.98828ZM10.2061 7.04156L10.2061 6.98828L11.5997 6.98828L11.5997 7.04156L10.2061 7.04156ZM10.2061 7.09491L10.2061 7.04156L11.5997 7.04156L11.5997 7.09491L10.2061 7.09491ZM10.2061 7.14833L10.2061 7.09491L11.5997 7.09491L11.5997 7.14833L10.2061 7.14833ZM10.2061 7.20182L10.2061 7.14833L11.5997 7.14833L11.5997 7.20182L10.2061 7.20182ZM10.2061 7.25537L10.2061 7.20182L11.5997 7.20182L11.5997 7.25537L10.2061 7.25537ZM10.2061 7.30899L10.2061 7.25537L11.5997 7.25537L11.5997 7.30899L10.2061 7.30899ZM10.2061 7.36267L10.2061 7.30899L11.5997 7.30899L11.5997 7.36267L10.2061 7.36267ZM10.2061 7.41641L10.2061 7.36267L11.5997 7.36267L11.5997 7.41641L10.2061 7.41641ZM10.2061 7.47022L10.2061 7.41641L11.5997 7.41641L11.5997 7.47022L10.2061 7.47022ZM10.2061 7.52409L10.2061 7.47022L11.5997 7.47022L11.5997 7.52409L10.2061 7.52409ZM10.2061 7.57801L10.2061 7.52409L11.5997 7.52409L11.5997 7.57801L10.2061 7.57801ZM10.2061 7.632L10.2061 7.57801L11.5997 7.57801L11.5997 7.632L10.2061 7.632ZM10.2061 7.68604L10.2061 7.632L11.5997 7.632L11.5997 7.68604L10.2061 7.68604ZM10.2061 7.74014L10.2061 7.68604L11.5997 7.68604L11.5997 7.74014L10.2061 7.74014ZM10.2061 7.79429L10.2061 7.74014L11.5997 7.74014L11.5997 7.79429L10.2061 7.79429ZM10.2061 7.8485L10.2061 7.79429L11.5997 7.79429L11.5997 7.8485L10.2061 7.8485ZM10.2061 7.90276L10.2061 7.8485L11.5997 7.8485L11.5997 7.90276L10.2061 7.90276ZM10.2061 7.95707L10.2061 7.90276L11.5997 7.90276L11.5997 7.95707L10.2061 7.95707ZM10.2061 8.01143L10.2061 7.95707L11.5997 7.95707L11.5997 8.01143L10.2061 8.01143ZM10.2061 8.06584L10.2061 8.01143L11.5997 8.01143L11.5997 8.06584L10.2061 8.06584ZM10.2061 8.12031L10.2061 8.06584L11.5997 8.06584L11.5997 8.12031L10.2061 8.12031ZM10.2061 8.17481L10.2061 8.12031L11.5997 8.12031L11.5997 8.17481L10.2061 8.17481ZM10.2061 8.22937L10.2061 8.17481L11.5997 8.17481L11.5997 8.22937L10.2061 8.22937ZM10.2061 8.28397L10.2061 8.22937L11.5997 8.22937L11.5997 8.28397L10.2061 8.28397ZM10.2061 8.33861L10.2061 8.28397L11.5997 8.28397L11.5997 8.33861L10.2061 8.33861ZM10.2061 8.3933L10.2061 8.33861L11.5997 8.33861L11.5997 8.3933L10.2061 8.3933ZM10.2061 8.44802L10.2061 8.3933L11.5997 8.3933L11.5997 8.44802L10.2061 8.44802ZM10.2061 8.50279L10.2061 8.44802L11.5997 8.44802L11.5997 8.50279L10.2061 8.50279ZM10.2061 8.5576L10.2061 8.50279L11.5997 8.50279L11.5997 8.5576L10.2061 8.5576ZM10.2061 8.61245L10.2061 8.5576L11.5997 8.5576L11.5997 8.61245L10.2061 8.61245ZM10.2061 8.66733L10.2061 8.61245L11.5997 8.61245L11.5997 8.66733L10.2061 8.66733ZM10.2061 8.72225L10.2061 8.66733L11.5997 8.66733L11.5997 8.72225L10.2061 8.72225ZM10.2061 8.7772L10.2061 8.72225L11.5997 8.72225L11.5997 8.7772L10.2061 8.7772ZM10.2061 8.83219L10.2061 8.7772L11.5997 8.7772L11.5997 8.83219L10.2061 8.83219ZM10.2061 8.88721L10.2061 8.83219L11.5997 8.83219L11.5997 8.88721L10.2061 8.88721ZM10.2061 8.94227L10.2061 8.88721L11.5997 8.88721L11.5997 8.94227L10.2061 8.94227ZM10.2061 8.99735L10.2061 8.94227L11.5997 8.94227L11.5997 8.99735L10.2061 8.99735ZM10.2061 9.05246L10.2061 8.99735L11.5997 8.99735L11.5997 9.05246L10.2061 9.05246ZM10.2061 9.10761L10.2061 9.05246L11.5997 9.05246L11.5997 9.10761L10.2061 9.10761ZM10.2061 9.16278L10.2061 9.10761L11.5997 9.10761L11.5997 9.16278L10.2061 9.16278ZM10.2061 9.21797L10.2061 9.16278L11.5997 9.16278L11.5997 9.21797L10.2061 9.21797ZM10.2061 9.2732L10.2061 9.21798L11.5997 9.21797L11.5997 9.27319L10.2061 9.2732ZM10.2061 9.32843L10.2061 9.27319L11.5997 9.2732L11.5997 9.32845L10.2061 9.32843ZM10.2061 9.38371L10.2061 9.32844L11.5997 9.32844L11.5997 9.38371L10.2061 9.38371ZM10.2061 9.439L10.2061 9.38371L11.5997 9.38371L11.5997 9.439L10.2061 9.439ZM10.2061 9.49431L10.2061 9.439L11.5997 9.439L11.5997 9.49431L10.2061 9.49431ZM10.2061 9.54964L10.2061 9.49431L11.5997 9.49431L11.5997 9.54964L10.2061 9.54964ZM10.2061 9.60499L10.2061 9.54964L11.5997 9.54964L11.5997 9.60499L10.2061 9.60499ZM10.2061 9.66035L10.2061 9.60499L11.5997 9.60499L11.5997 9.66035L10.2061 9.66035ZM10.2061 9.71573L10.2061 9.66035L11.5997 9.66035L11.5997 9.71573L10.2061 9.71573ZM10.2061 9.77113L10.2061 9.71573L11.5997 9.71573L11.5997 9.77113L10.2061 9.77113ZM10.2061 9.82654L10.2061 9.77113L11.5997 9.77113L11.5997 9.82654L10.2061 9.82654ZM10.2061 9.88197L10.2061 9.82654L11.5997 9.82654L11.5997 9.88197L10.2061 9.88197ZM10.2061 9.93741L10.2061 9.88197L11.5997 9.88197L11.5997 9.93741L10.2061 9.93741ZM10.2061 9.99285L10.2061 9.93741L11.5997 9.93741L11.5997 9.99285L10.2061 9.99285ZM10.2061 10.0483L10.2061 9.99285L11.5997 9.99285L11.5997 10.0483L10.2061 10.0483ZM10.2061 10.1038L10.2061 10.0483L11.5997 10.0483L11.5997 10.1038L10.2061 10.1038ZM10.2061 10.1592L10.2061 10.1038L11.5997 10.1038L11.5997 10.1592L10.2061 10.1592ZM10.2061 10.2147L10.2061 10.1592L11.5997 10.1592L11.5997 10.2147L10.2061 10.2147ZM10.2061 10.2702L10.2061 10.2147L11.5997 10.2147L11.5997 10.2702L10.2061 10.2702ZM10.2061 10.3257L10.2061 10.2702L11.5997 10.2702L11.5997 10.3257L10.2061 10.3257ZM10.2061 10.3812L10.2061 10.3257L11.5997 10.3257L11.5997 10.3812L10.2061 10.3812ZM10.2061 10.4367L10.2061 10.3812L11.5997 10.3812L11.5997 10.4367L10.2061 10.4367ZM10.2061 10.4922L10.2061 10.4367L11.5997 10.4367L11.5997 10.4922L10.2061 10.4922ZM10.2061 10.5477L10.2061 10.4922L11.5997 10.4922L11.5997 10.5477L10.2061 10.5477ZM10.2061 10.6032L10.2061 10.5477L11.5997 10.5477L11.5997 10.6032L10.2061 10.6032ZM10.2061 10.6586L10.2061 10.6032L11.5997 10.6032L11.5997 10.6586L10.2061 10.6586ZM10.2061 10.7141L10.2061 10.6586L11.5997 10.6586L11.5997 10.7141L10.2061 10.7141ZM10.2061 10.7696L10.2061 10.7141L11.5997 10.7141L11.5997 10.7696L10.2061 10.7696ZM10.2061 10.8251L10.2061 10.7696L11.5997 10.7696L11.5997 10.8251L10.2061 10.8251ZM10.2061 10.8806L10.2061 10.8251L11.5997 10.8251L11.5997 10.8806L10.2061 10.8806ZM10.2061 10.936L10.2061 10.8806L11.5997 10.8806L11.5997 10.936L10.2061 10.936ZM10.2061 10.9915L10.2061 10.936L11.5997 10.936L11.5997 10.9915L10.2061 10.9915ZM10.2061 11.0469L10.2061 10.9915L11.5997 10.9915L11.5997 11.0469L10.2061 11.0469ZM10.2061 11.1023L10.2061 11.0469L11.5997 11.0469L11.5997 11.1023L10.2061 11.1023ZM10.2061 11.1577L10.2061 11.1023L11.5997 11.1023L11.5997 11.1577L10.2061 11.1577ZM10.2061 11.2132L10.2061 11.1577L11.5997 11.1577L11.5997 11.2132L10.2061 11.2132ZM10.2061 11.2685L10.2061 11.2132L11.5997 11.2132L11.5997 11.2685L10.2061 11.2685ZM10.2061 11.3239L10.2061 11.2685L11.5997 11.2685L11.5997 11.3239L10.2061 11.3239ZM10.2061 11.3793L10.2061 11.3239L11.5997 11.3239L11.5997 11.3793L10.2061 11.3793ZM10.2061 11.4346L10.2061 11.3793L11.5997 11.3793L11.5997 11.4346L10.2061 11.4346ZM10.2061 11.4899L10.2061 11.4346L11.5997 11.4346L11.5997 11.4899L10.2061 11.4899ZM10.2061 11.5452L10.2061 11.4899L11.5997 11.4899L11.5997 11.5452L10.2061 11.5452ZM10.2061 11.6005L10.2061 11.5452L11.5997 11.5452L11.5997 11.6005L10.2061 11.6005ZM10.2061 11.6557L10.2061 11.6005L11.5997 11.6005L11.5997 11.6557L10.2061 11.6557ZM10.2061 11.711L10.2061 11.6557L11.5997 11.6557L11.5997 11.711L10.2061 11.711ZM10.2061 11.7662L10.2061 11.711L11.5997 11.711L11.5997 11.7662L10.2061 11.7662ZM10.2061 11.8214L10.2061 11.7662L11.5997 11.7662L11.5997 11.8214L10.2061 11.8214ZM10.2061 11.8765L10.2061 11.8214L11.5997 11.8214L11.5997 11.8765L10.2061 11.8765ZM10.2061 11.9316L10.2061 11.8765L11.5997 11.8765L11.5997 11.9316L10.2061 11.9316ZM10.2061 11.9867L10.2061 11.9316L11.5997 11.9316L11.5997 11.9867L10.2061 11.9867ZM10.2061 12.0418L10.2061 11.9867L11.5997 11.9867L11.5997 12.0418L10.2061 12.0418ZM10.2061 12.0968L10.2061 12.0418L11.5997 12.0418L11.5997 12.0968L10.2061 12.0968ZM10.2061 12.1518L10.2061 12.0968L11.5997 12.0968L11.5997 12.1518L10.2061 12.1518ZM10.2061 12.2068L10.2061 12.1518L11.5997 12.1518L11.5997 12.2068L10.2061 12.2068ZM10.2061 12.2617L10.2061 12.2068L11.5997 12.2068L11.5997 12.2617L10.2061 12.2617ZM10.2061 12.3166L10.2061 12.2617L11.5997 12.2617L11.5997 12.3166L10.2061 12.3166ZM10.2061 12.3715L10.2061 12.3166L11.5997 12.3166L11.5997 12.3715L10.2061 12.3715ZM10.2061 12.4263L10.2061 12.3715L11.5997 12.3715L11.5997 12.4263L10.2061 12.4263ZM10.2061 12.4811L10.2061 12.4263L11.5997 12.4263L11.5997 12.4811L10.2061 12.4811ZM10.2061 12.5358L10.2061 12.4811L11.5997 12.4811L11.5997 12.5358L10.2061 12.5358ZM10.2061 12.5905L10.2061 12.5358L11.5997 12.5358L11.5997 12.5905L10.2061 12.5905ZM10.2061 12.6452L10.2061 12.5905L11.5997 12.5905L11.5997 12.6452L10.2061 12.6452ZM10.2061 12.6998L10.2061 12.6452L11.5997 12.6452L11.5997 12.6998L10.2061 12.6998ZM10.2061 12.7543L10.2061 12.6998L11.5997 12.6998L11.5997 12.7543L10.2061 12.7543ZM10.2061 12.8089L10.2061 12.7543L11.5997 12.7543L11.5997 12.8089L10.2061 12.8089ZM10.2061 12.8633L10.2061 12.8089L11.5997 12.8089L11.5997 12.8633L10.2061 12.8633ZM10.2061 12.9178L10.2061 12.8633L11.5997 12.8633L11.5997 12.9178L10.2061 12.9178ZM10.2061 12.9721L10.2061 12.9178L11.5997 12.9178L11.5997 12.9721L10.2061 12.9721ZM10.2061 13.0265L10.2061 12.9721L11.5997 12.9721L11.5997 13.0265L10.2061 13.0265ZM10.2061 13.0808L10.2061 13.0265L11.5997 13.0265L11.5997 13.0808L10.2061 13.0808ZM10.2061 13.135L10.2061 13.0808L11.5997 13.0808L11.5997 13.135L10.2061 13.135ZM10.2061 13.1892L10.2061 13.135L11.5997 13.135L11.5997 13.1892L10.2061 13.1892ZM10.2061 13.2433L10.2061 13.1892L11.5997 13.1892L11.5997 13.2433L10.2061 13.2433ZM10.2061 13.2973L10.2061 13.2433L11.5997 13.2433L11.5997 13.2973L10.2061 13.2973ZM10.2061 13.3513L10.2061 13.2973L11.5997 13.2973L11.5997 13.3513L10.2061 13.3513ZM10.2061 13.4053L10.2061 13.3513L11.5997 13.3513L11.5997 13.4053L10.2061 13.4053ZM10.2061 13.4592L10.2061 13.4053L11.5997 13.4053L11.5997 13.4592L10.2061 13.4592ZM10.2061 13.513L10.2061 13.4592L11.5997 13.4592L11.5997 13.513L10.2061 13.513ZM10.2061 13.5668L10.2061 13.513L11.5997 13.513L11.5997 13.5668L10.2061 13.5668ZM10.2061 13.6205L10.2061 13.5668L11.5997 13.5668L11.5997 13.6205L10.2061 13.6205ZM10.2061 13.6742L10.2061 13.6206L11.5997 13.6203L11.5997 13.674L10.2061 13.6742ZM10.2061 13.7275L10.2061 13.674L11.5997 13.6742L11.5997 13.7278L10.2061 13.7275ZM10.2061 13.7812L10.2061 13.7277L11.5997 13.7277L11.5997 13.7812L10.2061 13.7812ZM10.2061 13.8346L10.2061 13.7812L11.5997 13.7812L11.5997 13.8346L10.2061 13.8346ZM10.2061 13.888L10.2061 13.8346L11.5997 13.8346L11.5997 13.888L10.2061 13.888ZM10.2061 13.9413L10.2061 13.888L11.5997 13.888L11.5997 13.9413L10.2061 13.9413ZM10.2061 13.9945L10.2061 13.9413L11.5997 13.9413L11.5997 13.9945L10.2061 13.9945ZM10.2061 14.0477L10.2061 13.9945L11.5997 13.9945L11.5997 14.0477L10.2061 14.0477ZM10.2061 14.1008L10.2061 14.0477L11.5997 14.0477L11.5997 14.1008L10.2061 14.1008ZM10.2061 14.1538L10.2061 14.1008L11.5997 14.1008L11.5997 14.1538L10.2061 14.1538ZM10.2061 14.2067L10.2061 14.1538L11.5997 14.1538L11.5997 14.2067L10.2061 14.2067ZM10.2061 14.2596L10.2061 14.2067L11.5997 14.2067L11.5997 14.2596L10.2061 14.2596ZM10.2061 14.3124L10.2061 14.2596L11.5997 14.2596L11.5997 14.3124L10.2061 14.3124ZM10.2061 14.3651L10.2061 14.3124L11.5997 14.3124L11.5997 14.3651L10.2061 14.3651ZM10.2061 14.4177L10.2061 14.3651L11.5997 14.3651L11.5997 14.4177L10.2061 14.4177ZM10.2061 14.4703L10.2061 14.4177L11.5997 14.4177L11.5997 14.4703L10.2061 14.4703ZM10.2061 14.5227L10.2061 14.4703L11.5997 14.4703L11.5997 14.5227L10.2061 14.5227ZM10.2061 14.5751L10.2061 14.5227L11.5997 14.5227L11.5997 14.5751L10.2061 14.5751ZM10.2061 14.6274L10.2061 14.5751L11.5997 14.5751L11.5997 14.6274L10.2061 14.6274ZM10.2061 14.6797L10.2061 14.6274L11.5997 14.6274L11.5997 14.6797L10.2061 14.6797ZM10.2061 14.7318L10.2061 14.6797L11.5997 14.6797L11.5997 14.7318L10.2061 14.7318ZM10.2061 14.7838L10.2061 14.7318L11.5997 14.7318L11.5997 14.7838L10.2061 14.7838ZM10.2061 14.8358L10.2061 14.7838L11.5997 14.7838L11.5997 14.8358L10.2061 14.8358ZM10.2061 14.8877L10.2061 14.8358L11.5997 14.8358L11.5997 14.8877L10.2061 14.8877ZM10.2061 14.9394L10.2061 14.8877L11.5997 14.8877L11.5997 14.9394L10.2061 14.9394ZM10.2061 14.9911L10.2061 14.9394L11.5997 14.9394L11.5997 14.9911L10.2061 14.9911ZM10.2061 15.0427L10.2061 14.9911L11.5997 14.9911L11.5997 15.0427L10.2061 15.0427ZM10.2061 15.0942L10.2061 15.0427L11.5997 15.0427L11.5997 15.0942L10.2061 15.0942ZM10.2061 15.1456L10.2061 15.0942L11.5997 15.0942L11.5997 15.1456L10.2061 15.1456ZM10.2061 15.1969L10.2061 15.1456L11.5997 15.1456L11.5997 15.1969L10.2061 15.1969ZM10.2061 15.2482L10.2061 15.1969L11.5997 15.1969L11.5997 15.2482L10.2061 15.2482ZM10.2061 15.2993L10.2061 15.2482L11.5997 15.2482L11.5997 15.2993L10.2061 15.2993ZM10.2061 15.3503L10.2061 15.2993L11.5997 15.2993L11.5997 15.3503L10.2061 15.3503ZM10.2061 15.4012L10.2061 15.3503L11.5997 15.3503L11.5997 15.4012L10.2061 15.4012ZM10.2061 15.452L10.2061 15.4012L11.5997 15.4012L11.5997 15.452L10.2061 15.452ZM10.2061 15.5027L10.2061 15.452L11.5997 15.452L11.5997 15.5027L10.2061 15.5027ZM10.2061 15.5534L10.2061 15.5027L11.5997 15.5027L11.5997 15.5534L10.2061 15.5534ZM10.2061 15.6039L10.2061 15.5534L11.5997 15.5534L11.5997 15.6039L10.2061 15.6039ZM10.2061 15.6543L10.2061 15.6039L11.5997 15.6039L11.5997 15.6543L10.2061 15.6543ZM10.2061 15.7046L10.2061 15.6543L11.5997 15.6543L11.5997 15.7046L10.2061 15.7046ZM10.2061 15.7547L10.2061 15.7046L11.5997 15.7046L11.5997 15.7547L10.2061 15.7547ZM10.2061 15.8048L10.2061 15.7547L11.5997 15.7547L11.5997 15.8048L10.2061 15.8048ZM10.2061 15.8548L10.2061 15.8048L11.5997 15.8048L11.5997 15.8548L10.2061 15.8548ZM10.2061 15.9046L10.2061 15.8548L11.5997 15.8548L11.5997 15.9046L10.2061 15.9046ZM10.2061 15.9544L10.2061 15.9046L11.5997 15.9046L11.5997 15.9544L10.2061 15.9544ZM10.2061 16.004L10.2061 15.9544L11.5997 15.9544L11.5997 16.004L10.2061 16.004ZM10.2061 16.0535L10.2061 16.004L11.5997 16.004L11.5997 16.0535L10.2061 16.0535ZM10.2061 16.1029L10.2061 16.0535L11.5997 16.0535L11.5997 16.1029L10.2061 16.1029ZM10.2061 16.1522L10.2061 16.1029L11.5997 16.1029L11.5997 16.1522L10.2061 16.1522ZM10.2061 16.2014L10.2061 16.1522L11.5997 16.1522L11.5997 16.2014L10.2061 16.2014ZM10.2061 16.2504L10.2061 16.2014L11.5997 16.2014L11.5997 16.2504L10.2061 16.2504ZM10.2061 16.2993L10.2061 16.2504L11.5997 16.2504L11.5997 16.2993L10.2061 16.2993ZM10.2061 16.3481L10.2061 16.2993L11.5997 16.2993L11.5997 16.3481L10.2061 16.3481ZM10.2061 16.3968L10.2061 16.3481L11.5997 16.3481L11.5997 16.3968L10.2061 16.3968ZM10.2061 16.4454L10.2061 16.3968L11.5997 16.3968L11.5997 16.4454L10.2061 16.4454ZM10.2061 16.4938L10.2061 16.4454L11.5997 16.4454L11.5997 16.4938L10.2061 16.4938ZM10.2061 16.5421L10.2061 16.4938L11.5997 16.4938L11.5997 16.5421L10.2061 16.5421ZM10.2061 16.5903L10.2061 16.5421L11.5997 16.5421L11.5997 16.5903L10.2061 16.5903ZM10.2061 16.6383L10.2061 16.5903L11.5997 16.5903L11.5997 16.6383L10.2061 16.6383ZM10.2061 16.6863L10.2061 16.6383L11.5997 16.6383L11.5997 16.6863L10.2061 16.6863ZM10.2061 16.7341L10.2061 16.6863L11.5997 16.6863L11.5997 16.7341L10.2061 16.7341ZM10.2061 16.7817L10.2061 16.7341L11.5997 16.7341L11.5997 16.7817L10.2061 16.7817ZM10.2061 16.8293L10.2061 16.7817L11.5997 16.7817L11.5997 16.8293L10.2061 16.8293ZM10.2061 16.8766L10.2061 16.8293L11.5997 16.8293L11.5997 16.8766L10.2061 16.8766ZM10.2061 16.9239L10.2061 16.8766L11.5997 16.8766L11.5997 16.9239L10.2061 16.9239ZM10.2061 16.971L10.2061 16.9239L11.5997 16.9239L11.5997 16.971L10.2061 16.971ZM10.2061 17.018L10.2061 16.971L11.5997 16.971L11.5997 17.018L10.2061 17.018ZM10.2061 17.0649L10.2061 17.018L11.5997 17.018L11.5997 17.0649L10.2061 17.0649ZM10.2061 17.1116L10.2061 17.0649L11.5997 17.0649L11.5997 17.1116L10.2061 17.1116ZM10.2061 17.1582L10.2061 17.1116L11.5997 17.1116L11.5997 17.1582L10.2061 17.1582ZM10.2061 17.2046L10.2061 17.1582L11.5997 17.1582L11.5997 17.2046L10.2061 17.2046ZM10.2061 17.2509L10.2061 17.2046L11.5997 17.2046L11.5997 17.2509L10.2061 17.2509ZM10.2061 17.297L10.2061 17.2509L11.5997 17.2509L11.5997 17.297L10.2061 17.297ZM10.2061 17.343L10.2061 17.297L11.5997 17.297L11.5997 17.343L10.2061 17.343ZM10.2061 17.3889L10.2061 17.343L11.5997 17.343L11.5997 17.3889L10.2061 17.3889ZM10.2061 17.4346L10.2061 17.3889L11.5997 17.3889L11.5997 17.4346L10.2061 17.4346ZM10.2061 17.4801L10.2061 17.4346L11.5997 17.4346L11.5997 17.4801L10.2061 17.4801ZM10.2061 17.5256L10.2061 17.4801L11.5997 17.4801L11.5997 17.5256L10.2061 17.5256ZM10.2061 17.5708L10.2061 17.5256L11.5997 17.5256L11.5997 17.5708L10.2061 17.5708ZM10.2061 17.6159L10.2061 17.5708L11.5997 17.5708L11.5997 17.6159L10.2061 17.6159ZM10.2061 17.6609L10.2061 17.6159L11.5997 17.6159L11.5997 17.6609L10.2061 17.6609ZM10.2061 17.7057L10.2061 17.6609L11.5997 17.6609L11.5997 17.7057L10.2061 17.7057ZM10.2061 17.7503L10.2061 17.7057L11.5997 17.7057L11.5997 17.7503L10.2061 17.7503ZM10.2061 17.7948L10.2061 17.7503L11.5997 17.7503L11.5997 17.7948L10.2061 17.7948ZM10.2061 17.8392L10.2061 17.7948L11.5997 17.7948L11.5997 17.8392L10.2061 17.8392ZM10.2061 17.8833L10.2061 17.8392L11.5997 17.8392L11.5997 17.8833L10.2061 17.8833ZM10.2061 17.9274L10.2061 17.8833L11.5997 17.8833L11.5997 17.9274L10.2061 17.9274ZM10.2061 17.9712L10.2061 17.9274L11.5997 17.9274L11.5997 17.9712L10.2061 17.9712ZM10.2061 18.0149L10.2061 17.9712L11.5997 17.9712L11.5997 18.0149L10.2061 18.0149ZM10.2061 18.0585L10.2061 18.0149L11.5997 18.0149L11.5997 18.0585L10.2061 18.0585ZM11.5997 9.2732L11.5997 18.0585L10.2061 18.0585L10.2061 9.2732L11.5997 9.2732ZM10.2061 18.145L10.2061 9.2732L11.5997 9.2732L11.5997 18.145L10.2061 18.145ZM10.2061 18.1881L10.2061 18.145L11.5997 18.145L11.5997 18.1881L10.2061 18.1881ZM10.2061 18.231L10.2061 18.1881L11.5997 18.1881L11.5997 18.231L10.2061 18.231ZM10.2061 18.2737L10.2061 18.231L11.5997 18.231L11.5997 18.2737L10.2061 18.2737ZM10.2061 18.3162L10.2061 18.2737L11.5997 18.2737L11.5997 18.3162L10.2061 18.3162ZM10.2061 18.3586L10.2061 18.3162L11.5997 18.3162L11.5997 18.3586L10.2061 18.3586ZM10.2061 18.4008L10.2061 18.3586L11.5997 18.3586L11.5997 18.4008L10.2061 18.4008ZM10.2061 18.4428L10.2061 18.4008L11.5997 18.4008L11.5997 18.4428L10.2061 18.4428ZM10.2061 18.4847L10.2061 18.4428L11.5997 18.4428L11.5997 18.4847L10.2061 18.4847ZM10.2061 18.5263L10.2061 18.4847L11.5997 18.4847L11.5997 18.5263L10.2061 18.5263ZM10.2061 18.5678L10.2061 18.5263L11.5997 18.5263L11.5997 18.5678L10.2061 18.5678ZM10.2061 18.6092L10.2061 18.5678L11.5997 18.5678L11.5997 18.6092L10.2061 18.6092ZM10.2061 18.6503L10.2061 18.6092L11.5997 18.6092L11.5997 18.6503L10.2061 18.6503ZM10.2061 18.6913L10.2061 18.6503L11.5997 18.6503L11.5997 18.6913L10.2061 18.6913ZM10.2061 18.7321L10.2061 18.6913L11.5997 18.6913L11.5997 18.7321L10.2061 18.7321ZM10.2061 18.7727L10.2061 18.7321L11.5997 18.7321L11.5997 18.7727L10.2061 18.7727ZM10.2061 18.8131L10.2061 18.7727L11.5997 18.7727L11.5997 18.8131L10.2061 18.8131ZM10.2061 18.8533L10.2061 18.8131L11.5997 18.8131L11.5997 18.8533L10.2061 18.8533ZM10.2061 18.8934L10.2061 18.8533L11.5997 18.8533L11.5997 18.8934L10.2061 18.8934ZM10.2061 18.9333L10.2061 18.8934L11.5997 18.8934L11.5997 18.9333L10.2061 18.9333ZM10.2061 18.973L10.2061 18.9333L11.5997 18.9333L11.5997 18.973L10.2061 18.973ZM10.2061 19.0125L10.2061 18.973L11.5997 18.973L11.5997 19.0125L10.2061 19.0125ZM10.2061 19.0518L10.2061 19.0125L11.5997 19.0125L11.5997 19.0518L10.2061 19.0518ZM10.2061 19.0909L10.2061 19.0518L11.5997 19.0518L11.5997 19.0909L10.2061 19.0909ZM10.2061 19.1298L10.2061 19.0909L11.5997 19.0909L11.5997 19.1298L10.2061 19.1298ZM10.2061 19.1685L10.2061 19.1298L11.5997 19.1298L11.5997 19.1685L10.2061 19.1685ZM10.2061 19.2071L10.2061 19.1685L11.5997 19.1685L11.5997 19.2071L10.2061 19.2071ZM10.2061 19.2454L10.2061 19.2071L11.5997 19.2071L11.5997 19.2454L10.2061 19.2454ZM10.2061 19.2836L10.2061 19.2454L11.5997 19.2454L11.5997 19.2836L10.2061 19.2836ZM10.2061 19.3215L10.2061 19.2836L11.5997 19.2836L11.5997 19.3215L10.2061 19.3215ZM10.2061 19.3593L10.2061 19.3215L11.5997 19.3215L11.5997 19.3593L10.2061 19.3593ZM10.2061 19.3969L10.2061 19.3593L11.5997 19.3593L11.5997 19.3969L10.2061 19.3969ZM10.2061 19.4342L10.2061 19.3969L11.5997 19.3969L11.5997 19.4342L10.2061 19.4342ZM10.2061 19.4714L10.2061 19.4342L11.5997 19.4342L11.5997 19.4714L10.2061 19.4714ZM10.2061 19.5083L10.2061 19.4714L11.5997 19.4714L11.5997 19.5083L10.2061 19.5083ZM10.2061 19.5451L10.2061 19.5083L11.5997 19.5083L11.5997 19.5451L10.2061 19.5451ZM10.2061 19.5816L10.2061 19.5451L11.5997 19.5451L11.5997 19.5816L10.2061 19.5816ZM10.2061 19.618L10.2061 19.5816L11.5997 19.5816L11.5997 19.618L10.2061 19.618ZM10.2061 19.6541L10.2061 19.618L11.5997 19.618L11.5997 19.6541L10.2061 19.6541ZM10.2061 19.69L10.2061 19.6541L11.5997 19.6541L11.5997 19.69L10.2061 19.69ZM10.2061 19.7257L10.2061 19.69L11.5997 19.69L11.5997 19.7257L10.2061 19.7257ZM10.2061 19.7613L10.2061 19.7257L11.5997 19.7257L11.5997 19.7613L10.2061 19.7613ZM10.2061 19.7965L10.2061 19.7613L11.5997 19.7613L11.5997 19.7965L10.2061 19.7965ZM10.2061 19.8316L10.2061 19.7965L11.5997 19.7965L11.5997 19.8316L10.2061 19.8316ZM10.2061 19.8665L10.2061 19.8316L11.5997 19.8316L11.5997 19.8665L10.2061 19.8665ZM10.2061 19.9012L10.2061 19.8665L11.5997 19.8665L11.5997 19.9012L10.2061 19.9012ZM10.2061 19.9356L10.2061 19.9012L11.5997 19.9012L11.5997 19.9356L10.2061 19.9356ZM10.2061 19.9698L10.2061 19.9356L11.5997 19.9356L11.5997 19.9698L10.2061 19.9698ZM10.2061 20.0038L10.2061 19.9698L11.5997 19.9698L11.5997 20.0038L10.2061 20.0038ZM10.2061 20.0376L10.2061 20.0038L11.5997 20.0038L11.5997 20.0376L10.2061 20.0376ZM10.2061 20.0712L10.2061 20.0376L11.5997 20.0376L11.5997 20.0712L10.2061 20.0712ZM10.2061 20.1045L10.2061 20.0712L11.5997 20.0712L11.5997 20.1045L10.2061 20.1045ZM10.2061 20.1377L10.2061 20.1045L11.5997 20.1045L11.5997 20.1377L10.2061 20.1377ZM10.2061 20.1706L10.2061 20.1377L11.5997 20.1377L11.5997 20.1706L10.2061 20.1706ZM10.2061 20.2032L10.2061 20.1706L11.5997 20.1706L11.5997 20.2032L10.2061 20.2032ZM10.2061 20.2357L10.2061 20.2032L11.5997 20.2032L11.5997 20.2357L10.2061 20.2357ZM10.2061 20.2679L10.2061 20.2357L11.5997 20.2357L11.5997 20.2679L10.2061 20.2679ZM10.2061 20.2999L10.2061 20.2679L11.5997 20.2679L11.5997 20.2999L10.2061 20.2999ZM10.2061 20.3317L10.2061 20.2999L11.5997 20.2999L11.5997 20.3317L10.2061 20.3317ZM10.2061 20.3632L10.2061 20.3317L11.5997 20.3317L11.5997 20.3632L10.2061 20.3632ZM10.2061 20.3945L10.2061 20.3632L11.5997 20.3632L11.5997 20.3945L10.2061 20.3945ZM10.2061 20.4256L10.2061 20.3945L11.5997 20.3945L11.5997 20.4256L10.2061 20.4256ZM10.2061 20.4565L10.2061 20.4256L11.5997 20.4256L11.5997 20.4565L10.2061 20.4565ZM10.2061 20.4871L10.2061 20.4565L11.5997 20.4565L11.5997 20.4871L10.2061 20.4871ZM10.2061 20.5174L10.2061 20.4871L11.5997 20.4871L11.5997 20.5174L10.2061 20.5174ZM10.2061 20.5476L10.2061 20.5174L11.5997 20.5174L11.5997 20.5476L10.2061 20.5476ZM10.2061 20.5775L10.2061 20.5476L11.5997 20.5476L11.5997 20.5775L10.2061 20.5775ZM10.2061 20.6071L10.2061 20.5775L11.5997 20.5775L11.5997 20.6071L10.2061 20.6071ZM10.2061 20.6365L10.2061 20.6071L11.5997 20.6071L11.5997 20.6365L10.2061 20.6365ZM10.2061 20.6657L10.2061 20.6365L11.5997 20.6365L11.5997 20.6657L10.2061 20.6657ZM10.2061 20.6947L10.2061 20.6657L11.5997 20.6657L11.5997 20.6947L10.2061 20.6947ZM10.2061 20.7233L10.2061 20.6947L11.5997 20.6947L11.5997 20.7233L10.2061 20.7233ZM10.2061 20.7518L10.2061 20.7233L11.5997 20.7233L11.5997 20.7518L10.2061 20.7518ZM10.2061 20.78L10.2061 20.7518L11.5997 20.7518L11.5997 20.78L10.2061 20.78ZM10.2061 20.808L10.2061 20.78L11.5997 20.78L11.5997 20.808L10.2061 20.808ZM10.2061 20.8357L10.2061 20.808L11.5997 20.808L11.5997 20.8357L10.2061 20.8357ZM10.2061 20.8631L10.2061 20.8357L11.5997 20.8357L11.5997 20.8631L10.2061 20.8631ZM10.2061 20.8903L10.2061 20.8631L11.5997 20.8631L11.5997 20.8903L10.2061 20.8903ZM10.2061 20.9173L10.2061 20.8903L11.5997 20.8903L11.5997 20.9173L10.2061 20.9173ZM10.2061 20.944L10.2061 20.9173L11.5997 20.9173L11.5997 20.944L10.2061 20.944ZM10.2061 20.9705L10.2061 20.944L11.5997 20.944L11.5997 20.9705L10.2061 20.9705ZM10.2061 20.9967L10.2061 20.9705L11.5997 20.9705L11.5997 20.9967L10.2061 20.9967ZM10.2061 21.0226L10.2061 20.9967L11.5997 20.9967L11.5997 21.0226L10.2061 21.0226ZM10.2061 21.0483L10.2061 21.0226L11.5997 21.0226L11.5997 21.0483L10.2061 21.0483ZM10.2061 21.0737L10.2061 21.0483L11.5997 21.0483L11.5997 21.0737L10.2061 21.0737ZM10.2061 21.0989L10.2061 21.0737L11.5997 21.0737L11.5997 21.0989L10.2061 21.0989ZM10.2061 21.1238L10.2061 21.0989L11.5997 21.0989L11.5997 21.1238L10.2061 21.1238ZM10.2061 21.1484L10.2061 21.1238L11.5997 21.1238L11.5997 21.1484L10.2061 21.1484ZM10.2061 21.1728L10.2061 21.1484L11.5997 21.1484L11.5997 21.1728L10.2061 21.1728ZM10.2061 21.197L10.2061 21.1728L11.5997 21.1728L11.5997 21.197L10.2061 21.197ZM10.2061 21.2208L10.2061 21.197L11.5997 21.197L11.5997 21.2208L10.2061 21.2208ZM10.2061 21.2444L10.2061 21.2208L11.5997 21.2208L11.5997 21.2444L10.2061 21.2444ZM10.2061 21.2677L10.2061 21.2444L11.5997 21.2444L11.5997 21.2677L10.2061 21.2677ZM10.2061 21.2908L10.2061 21.2677L11.5997 21.2677L11.5997 21.2908L10.2061 21.2908ZM10.2061 21.3136L10.2061 21.2908L11.5997 21.2908L11.5997 21.3136L10.2061 21.3136ZM10.2061 21.3361L10.2061 21.3136L11.5997 21.3136L11.5997 21.3361L10.2061 21.3361ZM10.2061 21.3584L10.2061 21.3361L11.5997 21.3361L11.5997 21.3584L10.2061 21.3584ZM10.2061 21.3803L10.2061 21.3584L11.5997 21.3584L11.5997 21.3803L10.2061 21.3803ZM10.2061 21.402L10.2061 21.3803L11.5997 21.3803L11.5997 21.402L10.2061 21.402ZM10.2061 21.4235L10.2061 21.402L11.5997 21.402L11.5997 21.4235L10.2061 21.4235ZM10.2061 21.4446L10.2061 21.4235L11.5997 21.4235L11.5997 21.4446L10.2061 21.4446ZM10.2061 21.4655L10.2061 21.4446L11.5997 21.4446L11.5997 21.4655L10.2061 21.4655ZM10.2061 21.4861L10.2061 21.4655L11.5997 21.4655L11.5997 21.4861L10.2061 21.4861ZM10.2061 21.5064L10.2061 21.4861L11.5997 21.4861L11.5997 21.5064L10.2061 21.5064ZM10.2061 21.5265L10.2061 21.5064L11.5997 21.5064L11.5997 21.5265L10.2061 21.5265ZM10.2061 21.5462L10.2061 21.5265L11.5997 21.5265L11.5997 21.5462L10.2061 21.5462ZM10.2061 21.5657L10.2061 21.5462L11.5997 21.5462L11.5997 21.5657L10.2061 21.5657ZM10.2061 21.5849L10.2061 21.5657L11.5997 21.5657L11.5997 21.5849L10.2061 21.5849ZM10.2061 21.6038L10.2061 21.5849L11.5997 21.5849L11.5997 21.6038L10.2061 21.6038ZM10.2061 21.6225L10.2061 21.6038L11.5997 21.6038L11.5997 21.6225L10.2061 21.6225ZM10.2061 21.6408L10.2061 21.6225L11.5997 21.6225L11.5997 21.6408L10.2061 21.6408ZM10.2061 21.6588L10.2061 21.6408L11.5997 21.6408L11.5997 21.6588L10.2061 21.6588ZM10.2061 21.6766L10.2061 21.6588L11.5997 21.6588L11.5997 21.6766L10.2061 21.6766ZM10.2061 21.6941L10.2061 21.6766L11.5997 21.6766L11.5997 21.6941L10.2061 21.6941ZM10.2061 21.7113L10.2061 21.6941L11.5997 21.6941L11.5997 21.7113L10.2061 21.7113ZM10.2061 21.7282L10.2061 21.7113L11.5997 21.7113L11.5997 21.7282L10.2061 21.7282ZM10.2061 21.7448L10.2061 21.7282L11.5997 21.7282L11.5997 21.7448L10.2061 21.7448ZM10.2061 21.7611L10.2061 21.7448L11.5997 21.7448L11.5997 21.7611L10.2061 21.7611ZM10.2061 21.7771L10.2061 21.7611L11.5997 21.7611L11.5997 21.7771L10.2061 21.7771ZM10.2061 21.7928L10.2061 21.7771L11.5997 21.7771L11.5997 21.7928L10.2061 21.7928ZM10.2061 21.8082L10.2061 21.7928L11.5997 21.7928L11.5997 21.8082L10.2061 21.8082ZM10.2061 21.8233L10.2061 21.8082L11.5997 21.8082L11.5997 21.8233L10.2061 21.8233ZM10.2061 21.8381L10.2061 21.8233L11.5997 21.8233L11.5997 21.8381L10.2061 21.8381ZM10.2061 21.8526L10.2061 21.8381L11.5997 21.8381L11.5997 21.8526L10.2061 21.8526ZM10.2061 21.8669L10.2061 21.8526L11.5997 21.8526L11.5997 21.8669L10.2061 21.8669ZM10.2061 21.8808L10.2061 21.8669L11.5997 21.8669L11.5997 21.8808L10.2061 21.8808ZM10.2061 21.8944L10.2061 21.8808L11.5997 21.8808L11.5997 21.8944L10.2061 21.8944ZM10.2061 21.9077L10.2061 21.8944L11.5997 21.8944L11.5997 21.9077L10.2061 21.9077ZM10.2061 21.9207L10.2061 21.9077L11.5997 21.9077L11.5997 21.9207L10.2061 21.9207ZM10.2061 21.9333L10.2061 21.9207L11.5997 21.9207L11.5997 21.9333L10.2061 21.9333ZM10.2061 21.9457L10.2061 21.9333L11.5997 21.9333L11.5997 21.9457L10.2061 21.9457ZM10.2061 21.9578L10.2061 21.9457L11.5997 21.9457L11.5997 21.9578L10.2061 21.9578ZM10.2061 21.9695L10.2061 21.9578L11.5997 21.9578L11.5997 21.9695L10.2061 21.9695ZM10.2061 21.981L10.2061 21.9695L11.5997 21.9695L11.5997 21.981L10.2061 21.981ZM10.2061 21.9921L10.2061 21.981L11.5997 21.981L11.5997 21.9921L10.2061 21.9921ZM10.2061 22.0029L10.2061 21.9921L11.5997 21.9921L11.5997 22.0029L10.2061 22.0029ZM10.2061 22.0134L10.2061 22.0029L11.5997 22.0029L11.5997 22.0134L10.2061 22.0134ZM10.2061 22.0236L10.2061 22.0134L11.5997 22.0134L11.5997 22.0236L10.2061 22.0236ZM10.2061 22.0335L10.2061 22.0236L11.5997 22.0236L11.5997 22.0335L10.2061 22.0335ZM10.2061 22.043L10.2061 22.0335L11.5997 22.0335L11.5997 22.043L10.2061 22.043ZM10.2061 22.0523L10.2061 22.043L11.5997 22.043L11.5997 22.0523L10.2061 22.0523ZM10.2061 22.0612L10.2061 22.0523L11.5997 22.0523L11.5997 22.0612L10.2061 22.0612ZM10.2061 22.0698L10.2061 22.0612L11.5997 22.0612L11.5997 22.0698L10.2061 22.0698ZM10.2061 22.0732L10.2061 22.0698L11.5997 22.0698L11.5997 22.0732L10.2061 22.0732ZM1.7939 11.5883C1.7939 17 5.9036 21.3255 10.91 21.3765L10.8958 22.77C5.0532 22.7106 0.400294 17.6899 0.400294 11.5883L1.7939 11.5883Z" fill="#3C507B" mask="url(#path-2-outside-2_148_52)"/>
</svg>
