<svg width="314" height="285" viewBox="0 0 314 285" fill="none" xmlns="http://www.w3.org/2000/svg">
<mask id="mask0_1556_1192" style="mask-type:alpha" maskUnits="userSpaceOnUse" x="70" y="37" width="206" height="207">
<ellipse cx="102.544" cy="102.528" rx="102.544" ry="102.528" transform="matrix(0.859964 0.510354 -0.510589 0.859825 136.949 0)" fill="#ECF3F3"/>
</mask>
<g mask="url(#mask0_1556_1192)">
<rect width="211.77" height="331.098" transform="matrix(0.24394 0.969649 -0.96995 0.243864 330.201 104.342)" fill="#3C507B"/>
</g>
<mask id="mask1_1556_1192" style="mask-type:alpha" maskUnits="userSpaceOnUse" x="37" y="41" width="206" height="206">
<ellipse cx="102.544" cy="102.528" rx="102.544" ry="102.528" transform="matrix(-0.862313 -0.506375 0.506611 -0.862175 176.85 284.229)" fill="#ECF3F3"/>
</mask>
<g mask="url(#mask1_1556_1192)">
<rect width="211.77" height="331.099" transform="matrix(-0.248417 -0.968512 0.968813 -0.248343 -16.8832 180.782)" fill="#6A9F9A"/>
</g>
<path d="M270.212 153.755L269.683 153.351C276.715 144.117 280.433 133.087 280.433 121.448C280.433 103.417 271.362 86.8282 256.166 77.0727L256.527 76.5131C271.915 86.3867 281.099 103.187 281.099 121.448C281.099 133.23 277.331 144.403 270.212 153.755Z" fill="#EBB964"/>
<path d="M227.745 174.801C198.323 174.801 174.385 150.864 174.385 121.442C174.385 92.0199 198.323 68.082 227.745 68.082V68.7473C198.69 68.7473 175.057 92.3867 175.057 121.436C175.057 150.49 198.696 174.124 227.745 174.124C236.524 174.124 245.217 171.923 252.877 167.757L253.194 168.341C245.434 172.576 236.63 174.801 227.745 174.801Z" fill="#EBB964"/>
<path d="M202.495 162.515C188.12 153.661 179.54 138.304 179.54 121.442H180.877C180.877 137.838 189.221 152.766 203.198 161.378L202.495 162.515Z" fill="#EBB964"/>
<path d="M227.745 169.653C222.46 169.653 217.269 168.801 212.307 167.129L212.736 165.867C217.561 167.496 222.609 168.323 227.751 168.323C251.895 168.323 271.946 150.236 274.377 126.248L275.708 126.385C273.196 151.044 252.578 169.653 227.745 169.653Z" fill="#EBB964"/>
<path d="M274.017 113.956C272.27 103.081 266.686 93.1142 258.286 85.8956C249.799 78.5961 238.949 74.5795 227.745 74.5795C218.698 74.5795 209.919 77.1598 202.352 82.0469C193.536 87.7422 186.808 96.3225 183.407 106.209L182.145 105.773C185.639 95.6075 192.56 86.7847 201.625 80.9277C209.409 75.9038 218.437 73.2489 227.739 73.2489C239.266 73.2489 250.421 77.3836 259.15 84.8883C267.787 92.3121 273.532 102.565 275.329 113.751L274.017 113.956Z" fill="#EBB964"/>
<path d="M227.745 156.26C208.545 156.26 192.927 140.642 192.927 121.442C192.927 113.67 195.432 106.32 200.164 100.19L201.221 101.004C196.67 106.905 194.263 113.968 194.263 121.442C194.263 139.902 209.285 154.924 227.745 154.924C231.022 154.924 234.261 154.451 237.364 153.518L237.749 154.799C234.516 155.775 231.146 156.26 227.745 156.26Z" fill="#EBB964"/>
<path d="M251.26 147.121L250.359 146.138C257.266 139.809 261.227 130.812 261.227 121.448C261.227 114.857 259.312 108.478 255.693 103L256.806 102.267C260.574 107.962 262.564 114.596 262.564 121.454C262.558 131.185 258.442 140.542 251.26 147.121Z" fill="#EBB964"/>
<path d="M248.574 95.2282C242.599 90.4717 235.393 87.9598 227.745 87.9598C221.036 87.9598 214.564 89.937 209.024 93.68L208.278 92.5733C214.035 88.681 220.769 86.6292 227.745 86.6292C235.704 86.6292 243.196 89.2406 249.407 94.1899L248.574 95.2282Z" fill="#EBB964"/>
<path d="M227.745 150.279C223.057 150.279 218.4 149.129 214.284 146.953L214.595 146.362C218.618 148.488 223.163 149.614 227.739 149.614C240.379 149.614 251.546 141.114 254.897 128.94L255.538 129.121C252.118 141.581 240.684 150.279 227.745 150.279Z" fill="#EBB964"/>
<path d="M207.358 141.842C201.911 136.395 198.908 129.151 198.908 121.448C198.908 105.549 211.841 92.6105 227.745 92.6105C243.644 92.6105 256.583 105.549 256.583 121.448H255.917C255.917 105.916 243.283 93.282 227.752 93.282C212.22 93.282 199.586 105.916 199.586 121.448C199.586 128.971 202.514 136.047 207.843 141.369L207.358 141.842Z" fill="#EBB964"/>
<path d="M227.745 139.38C217.853 139.38 209.807 131.334 209.807 121.442C209.807 111.549 217.853 103.504 227.745 103.504V104.841C218.593 104.841 211.144 112.289 211.144 121.442C211.144 130.594 218.593 138.043 227.745 138.043C236.897 138.043 244.346 130.594 244.346 121.442H245.683C245.677 131.334 237.631 139.38 227.745 139.38Z" fill="#EBB964"/>
<path d="M227.745 130.358C222.827 130.358 218.829 126.36 218.829 121.442H219.494C219.494 125.987 223.194 129.686 227.739 129.686C232.284 129.686 235.983 125.987 235.983 121.442C235.983 116.897 232.284 113.197 227.739 113.197C225.214 113.197 222.864 114.329 221.285 116.306L220.763 115.889C222.466 113.751 225.009 112.526 227.739 112.526C232.657 112.526 236.655 116.524 236.655 121.442C236.655 126.36 232.657 130.358 227.745 130.358Z" fill="#EBB964"/>
</svg>
